<svg width="225" height="50" viewBox="0 0 225 50" fill="none" xmlns="http://www.w3.org/2000/svg">
<g clip-path="url(#clip0_1_2)">
<path d="M87.4807 30.6061H81.4364V16.7273C81.4364 15.9394 81.3143 15.2121 81.0091 14.6061C80.7648 14 80.3375 13.4545 79.9101 12.9697C79.4217 12.5455 78.8722 12.1818 78.2617 11.9394C77.6511 11.697 76.9795 11.5758 76.2469 11.5758H65.6236V30.6061H59.5793V8.54545C59.5793 8.12121 59.6404 7.75758 59.8235 7.39394C60.0067 7.0303 60.1899 6.72727 60.4951 6.42424C60.8004 6.18182 61.1057 5.93939 61.472 5.75758C61.8383 5.57576 62.2657 5.51515 62.6931 5.51515H76.369C77.1016 5.51515 77.9564 5.57576 78.8111 5.75758C79.6659 5.93939 80.5206 6.18182 81.3143 6.60606C82.1691 6.9697 82.9628 7.45455 83.6954 8.06061C84.428 8.66667 85.0996 9.33333 85.7102 10.1818C86.3207 11.0303 86.7481 11.9394 87.1144 13.0303C87.4807 14.1212 87.6028 15.3333 87.6028 16.6667V30.6061H87.4807Z" fill="#1E1E1E"/>
<path d="M119.9 13.8788C119.9 14.7273 119.778 15.6364 119.473 16.6061C119.167 17.5758 118.679 18.4848 118.007 19.2727C117.336 20.1212 116.481 20.7879 115.443 21.3333C114.405 21.8788 113.062 22.1818 111.536 22.1818H100.607V16.4848H111.597C112.452 16.4848 113.062 16.2424 113.489 15.7576C113.917 15.2727 114.161 14.6061 114.161 13.8788C114.161 13.0909 113.917 12.4848 113.428 12C112.94 11.5758 112.329 11.3333 111.597 11.3333H100.607C99.7524 11.3333 99.1419 11.5758 98.7145 12.0606C98.2872 12.5455 98.0429 13.2121 98.0429 13.9394V22.3636C98.0429 23.1515 98.2872 23.8182 98.7756 24.2424C99.264 24.6667 99.9356 24.9091 100.668 24.9091H111.597V30.6667H100.607C99.7524 30.6667 98.8366 30.5455 97.8598 30.2424C96.8829 29.9394 95.9671 29.4545 95.1734 28.7879C94.3187 28.1212 93.6471 27.2727 93.0976 26.2424C92.5481 25.2121 92.2429 23.8788 92.2429 22.3636V13.8788C92.2429 13.0303 92.365 12.1212 92.6702 11.1515C92.9755 10.1818 93.4639 9.27273 94.1355 8.48485C94.8071 7.63636 95.6619 6.9697 96.6998 6.42424C97.7377 5.87879 99.0808 5.57576 100.607 5.57576H111.597C112.452 5.57576 113.367 5.69697 114.344 6C115.321 6.30303 116.237 6.78788 117.031 7.45455C117.885 8.12121 118.557 8.9697 119.106 10C119.656 11.0303 119.9 12.3636 119.9 13.8788Z" fill="#1E1E1E"/>
<path d="M165.568 5.57576C164.591 7.69697 163.553 9.81818 162.454 11.9394C161.355 14 160.134 16 158.913 17.8182C157.692 19.697 156.471 21.3939 155.189 22.9697C153.907 24.5455 152.625 25.8788 151.404 27.0303C150.182 28.1818 148.9 29.0303 147.74 29.697C146.519 30.3636 145.42 30.6667 144.382 30.6667C143.955 30.6667 143.528 30.6061 143.161 30.4242C142.795 30.2424 142.49 30.0606 142.184 29.7576C141.879 29.5152 141.696 29.1515 141.513 28.7879C141.33 28.4242 141.269 28 141.269 27.5758V16.3636L129.241 29.697C128.936 30 128.57 30.2424 128.203 30.3636C127.837 30.4848 127.471 30.6061 127.043 30.6061C126.616 30.6061 126.25 30.5455 125.883 30.3636C125.517 30.1818 125.212 30 124.906 29.697C124.601 29.4545 124.418 29.0909 124.235 28.7273C124.052 28.3636 123.991 27.9394 123.991 27.5152V5.57576H130.035V19.8788L142.123 6.48485C142.551 6.06061 143.1 5.75758 143.65 5.63636C144.26 5.51515 144.81 5.57576 145.42 5.81818C145.97 6.06061 146.458 6.42424 146.764 6.90909C147.069 7.39394 147.252 7.93939 147.252 8.54545V22.8485C148.534 21.5758 149.755 20.303 150.793 18.9091C151.831 17.5152 152.808 16.0606 153.724 14.6061C154.639 13.1515 155.494 11.6364 156.288 10.1212C157.082 8.60606 157.875 7.09091 158.608 5.57576H165.568Z" fill="#1E1E1E"/>
<path d="M192.126 30.6061H175.642C174.787 30.6061 173.871 30.4848 172.894 30.1818C171.917 29.8788 171.002 29.3939 170.147 28.7273C169.292 28.0606 168.621 27.2121 168.01 26.1212C167.461 25.0303 167.155 23.7576 167.155 22.1818V14C167.155 13.4545 167.216 12.8485 167.338 12.1818C167.461 11.5758 167.705 10.9091 167.949 10.303C168.193 9.69697 168.621 9.09091 169.048 8.48485C169.475 7.93939 170.025 7.39394 170.635 6.9697C171.246 6.54545 171.979 6.18182 172.833 5.93939C173.688 5.69697 174.604 5.57576 175.642 5.57576H192.126V11.5758H175.642C174.848 11.5758 174.238 11.7576 173.81 12.1818C173.383 12.6061 173.2 13.2121 173.2 14.0606V22.1818C173.2 22.9697 173.383 23.5758 173.81 24C174.238 24.4242 174.848 24.6061 175.642 24.6061H192.065V30.6061H192.126Z" fill="#1E1E1E"/>
<path d="M224.362 22.1818C224.362 23.2121 224.24 24.1212 223.996 24.9697C223.752 25.8182 223.385 26.5455 222.958 27.1515C222.531 27.7576 222.042 28.303 221.432 28.7273C220.882 29.1515 220.272 29.5152 219.6 29.8182C218.929 30.1212 218.318 30.303 217.707 30.4242C217.036 30.5455 216.425 30.6061 215.876 30.6061H204.947C204.093 30.6061 203.177 30.4848 202.2 30.1818C201.223 29.8788 200.307 29.3939 199.453 28.7273C198.598 28.0606 197.926 27.2121 197.316 26.1212C196.766 25.0303 196.461 23.7576 196.461 22.1818V14C196.461 12.4848 196.766 11.1515 197.316 10.0606C197.865 8.9697 198.598 8.12121 199.453 7.45455C200.307 6.78788 201.223 6.30303 202.2 6C203.177 5.69697 204.093 5.57576 204.947 5.57576H215.876C217.402 5.57576 218.745 5.87879 219.844 6.42424C220.943 6.9697 221.798 7.69697 222.47 8.54545C223.141 9.39394 223.63 10.303 223.935 11.2727C224.24 12.2424 224.362 13.1515 224.362 14V22.1818ZM218.318 14.0606C218.318 13.2121 218.135 12.6061 217.707 12.1818C217.28 11.7576 216.67 11.5758 215.876 11.5758H204.947C204.154 11.5758 203.543 11.7576 203.116 12.1818C202.688 12.6061 202.505 13.2121 202.505 14V22.1818C202.505 22.9697 202.688 23.5758 203.116 24C203.543 24.4242 204.154 24.6061 204.947 24.6061H215.876C216.731 24.6061 217.341 24.4242 217.707 24C218.135 23.5758 218.318 22.9697 218.318 22.1818V14.0606Z" fill="#1E1E1E"/>
<path d="M67.9175 46.9697H62.4389C62.1346 46.9697 61.8302 46.9091 61.5258 46.8485C61.2215 46.7273 60.9171 46.6061 60.6127 46.3636C60.3084 46.1212 60.1257 45.8788 59.8823 45.5152C59.6996 45.1515 59.5779 44.7273 59.5779 44.1818V41.4545C59.5779 41.2727 59.5779 41.0909 59.6388 40.8485C59.6996 40.6667 59.7605 40.4242 59.8214 40.2424C59.9431 40.0606 60.0649 39.8182 60.1866 39.6364C60.3084 39.4545 60.491 39.2727 60.7345 39.1515C60.9171 39.0303 61.1606 38.9091 61.465 38.7879C61.7693 38.6667 62.0737 38.6667 62.3781 38.6667H67.8566V40.6061H62.3781C62.1346 40.6061 61.8911 40.6667 61.7693 40.7879C61.6476 40.9091 61.5867 41.1515 61.5867 41.3939V44.1212C61.5867 44.3636 61.6476 44.6061 61.7693 44.7273C61.8911 44.8485 62.1346 44.9091 62.3781 44.9091H67.8566V46.9697H67.9175Z" fill="#1F85A3"/>
<path d="M78.6312 44.1818C78.6312 44.5455 78.5703 44.8485 78.5094 45.0909C78.4485 45.3939 78.3268 45.6364 78.1442 45.8182C77.9616 46 77.8398 46.1818 77.6572 46.3636C77.4746 46.5455 77.292 46.6061 77.0485 46.7273C76.8658 46.8485 76.6223 46.9091 76.4397 46.9091C76.1962 46.9697 76.0136 46.9697 75.831 46.9697H72.1786C71.8742 46.9697 71.5699 46.9091 71.2655 46.8485C70.9612 46.7273 70.6568 46.6061 70.3524 46.3636C70.0481 46.1212 69.8654 45.8788 69.6219 45.5152C69.3785 45.1515 69.3176 44.7273 69.3176 44.1818V41.4545C69.3176 40.9697 69.4393 40.4849 69.6219 40.1212C69.8046 39.7576 70.0481 39.4545 70.3524 39.2727C70.6568 39.0303 70.9612 38.9091 71.2655 38.7879C71.5699 38.6667 71.8742 38.6667 72.1786 38.6667H75.831C76.318 38.6667 76.805 38.7879 77.1702 38.9697C77.5354 39.1515 77.8398 39.3939 78.0224 39.697C78.205 40 78.3877 40.303 78.5094 40.6061C78.6312 40.9091 78.6312 41.2121 78.6312 41.5152V44.1818ZM76.6223 41.4545C76.6223 41.1515 76.5615 40.9697 76.4397 40.8485C76.318 40.7273 76.0745 40.6667 75.831 40.6667H72.1786C71.9351 40.6667 71.6916 40.7273 71.5699 40.8485C71.4481 40.9697 71.3873 41.2121 71.3873 41.4545V44.1818C71.3873 44.4242 71.4481 44.6667 71.5699 44.7879C71.6916 44.9091 71.9351 44.9697 72.1786 44.9697H75.831C76.1354 44.9697 76.318 44.9091 76.4397 44.7879C76.5615 44.6667 76.6223 44.4242 76.6223 44.1818V41.4545Z" fill="#1F85A3"/>
<path d="M87.8839 46.9697H85.8751V41.4545C85.8751 41.2121 85.8142 40.9697 85.6924 40.8485C85.5707 40.7273 85.3272 40.6667 85.0837 40.6667H82.4662V47.0303H80.3965V39.6364C80.3965 39.5152 80.3965 39.3939 80.4573 39.2727C80.5182 39.1515 80.5791 39.0303 80.7008 38.9697C80.8226 38.9091 80.8835 38.7879 81.0052 38.7879C81.127 38.7273 81.2487 38.7273 81.3704 38.7273H85.0228C85.3272 38.7273 85.6316 38.7879 85.9359 38.8485C86.2403 38.9697 86.5447 39.0909 86.849 39.3333V38.7273H89.5883C89.7709 38.7273 89.9535 38.7273 90.197 38.7879C90.3797 38.8485 90.6231 38.9091 90.8058 38.9697C90.9884 39.0909 91.2319 39.2121 91.4145 39.3333C91.5971 39.4545 91.7797 39.6364 91.9015 39.8788C92.0232 40.1212 92.145 40.303 92.2667 40.6061C92.3276 40.9091 92.3885 41.2121 92.3885 41.5152V47.0303H90.3797V41.5152C90.3797 41.2727 90.3188 41.0303 90.197 40.9091C90.0753 40.7879 89.8318 40.7273 89.5883 40.7273H87.7621C87.823 40.9697 87.8839 41.2121 87.8839 41.5152V46.9697Z" fill="#1F85A3"/>
<path d="M101.763 46.9697H99.7541V41.4545C99.7541 41.2121 99.6932 40.9697 99.5715 40.8485C99.4497 40.7273 99.2062 40.6667 98.9628 40.6667H96.3452V47.0303H94.3364V39.6364C94.3364 39.5152 94.3364 39.3939 94.3973 39.2727C94.4581 39.1515 94.519 39.0303 94.6408 38.9697C94.7625 38.9091 94.8234 38.7879 94.9451 38.7879C95.0669 38.7879 95.1886 38.7273 95.3712 38.7273H99.0236C99.328 38.7273 99.6324 38.7879 99.9367 38.8485C100.241 38.9697 100.545 39.0909 100.85 39.3333V38.7273H103.589C103.772 38.7273 103.954 38.7273 104.198 38.7879C104.441 38.8485 104.624 38.9091 104.807 38.9697C104.989 39.0909 105.233 39.2121 105.415 39.3333C105.598 39.4545 105.781 39.6364 105.902 39.8788C106.024 40.0606 106.146 40.303 106.268 40.6061C106.328 40.9091 106.389 41.2121 106.389 41.5152V47.0303H104.38V41.5152C104.38 41.2727 104.32 41.0303 104.198 40.9091C104.076 40.7879 103.833 40.7273 103.589 40.7273H101.763C101.824 40.9697 101.885 41.2121 101.885 41.5152V46.9697H101.763Z" fill="#1F85A3"/>
<path d="M117.286 45.9394C117.286 46.0606 117.286 46.2424 117.225 46.3636C117.164 46.4849 117.103 46.6061 116.981 46.6667C116.92 46.7273 116.799 46.8485 116.677 46.9091C116.555 46.9697 116.433 46.9697 116.312 46.9697H111.746C111.503 46.9697 111.259 46.9697 110.955 46.9091C110.65 46.8485 110.407 46.7879 110.103 46.6061C109.798 46.4242 109.555 46.303 109.311 46.1212C109.068 45.9394 108.824 45.697 108.642 45.3939C108.459 45.0909 108.276 44.7879 108.155 44.4242C108.033 44.0606 107.972 43.6364 107.972 43.2121V38.6061H109.981V43.2121C109.981 43.4545 110.042 43.697 110.103 43.9394C110.163 44.1212 110.346 44.303 110.468 44.4849C110.59 44.6667 110.833 44.7273 111.016 44.8485C111.198 44.9091 111.442 44.9697 111.685 44.9697H115.216V38.6061H117.225V45.9394H117.286Z" fill="#1F85A3"/>
<path d="M128.486 46.9697H126.477V42.3636C126.477 42.1212 126.416 41.8788 126.356 41.6364C126.295 41.4545 126.112 41.2727 125.99 41.0909C125.869 40.9091 125.625 40.8485 125.443 40.7273C125.26 40.6667 125.016 40.6061 124.773 40.6061H121.181V46.9697H119.173V39.6364C119.173 39.5152 119.173 39.3939 119.233 39.2727C119.294 39.1515 119.355 39.0303 119.477 38.9697C119.599 38.9091 119.66 38.7879 119.781 38.7879C119.903 38.7879 120.025 38.7273 120.207 38.7273H124.773C125.016 38.7273 125.321 38.7273 125.564 38.7879C125.869 38.8485 126.112 38.9091 126.417 39.0909C126.721 39.2121 126.964 39.3939 127.208 39.5758C127.451 39.7576 127.695 40 127.877 40.303C128.06 40.6061 128.243 40.9091 128.364 41.2727C128.486 41.6364 128.547 42.0606 128.547 42.4849V46.9697H128.486Z" fill="#1F85A3"/>
<path d="M132.321 36.9091H130.312V35.0909H132.321V36.9091ZM132.321 46.9697H130.312V38.6061H132.321V46.9697Z" fill="#1F85A3"/>
<path d="M142.365 46.9697H136.887C136.582 46.9697 136.278 46.9091 135.974 46.8485C135.669 46.7879 135.365 46.6061 135.06 46.3636C134.756 46.1212 134.573 45.8788 134.33 45.5152C134.147 45.1515 134.026 44.7273 134.026 44.1818V41.4545C134.026 41.2727 134.026 41.0909 134.087 40.8485C134.147 40.6667 134.208 40.4242 134.269 40.2424C134.391 40.0606 134.513 39.8182 134.634 39.6364C134.756 39.4545 134.939 39.2727 135.182 39.1515C135.365 39.0303 135.608 38.9091 135.913 38.7879C136.217 38.6667 136.521 38.6667 136.826 38.6667H142.304V40.6061H136.826C136.582 40.6061 136.339 40.6667 136.217 40.7879C136.095 40.9091 136.034 41.1515 136.034 41.3939V44.1212C136.034 44.3636 136.095 44.6061 136.217 44.7273C136.339 44.8485 136.582 44.9091 136.826 44.9091H142.304V46.9697H142.365Z" fill="#1F85A3"/>
<path d="M152.653 44.1818C152.653 44.4849 152.592 44.7879 152.531 45.0909C152.409 45.3939 152.288 45.697 152.044 46C151.801 46.303 151.557 46.4849 151.192 46.6667C150.827 46.8485 150.4 46.9697 149.913 46.9697H146.261C145.957 46.9697 145.652 46.9091 145.348 46.8485C145.044 46.7879 144.739 46.6061 144.435 46.3636C144.131 46.1212 143.948 45.8788 143.765 45.5152C143.583 45.1515 143.461 44.7273 143.461 44.2424C143.461 43.9394 143.522 43.6364 143.583 43.3333C143.704 43.0303 143.826 42.7273 144.07 42.4242C144.313 42.1212 144.557 41.9394 144.922 41.7576C145.287 41.5758 145.713 41.4545 146.2 41.4545H149.853V43.3939H146.2C145.896 43.3939 145.713 43.4545 145.592 43.6364C145.47 43.8182 145.348 44 145.348 44.2424C145.348 44.4849 145.409 44.7273 145.592 44.8485C145.774 44.9697 145.957 45.0909 146.2 45.0909H149.853C150.157 45.0909 150.34 45.0303 150.461 44.8485C150.583 44.6667 150.705 44.4849 150.705 44.2424V41.4545C150.705 41.2121 150.644 40.9697 150.461 40.8485C150.279 40.7273 150.096 40.6061 149.853 40.6061H145.409V38.7273H149.853C150.157 38.7273 150.461 38.7879 150.766 38.8485C151.07 38.9091 151.374 39.0909 151.679 39.3333C151.983 39.5758 152.166 39.8182 152.348 40.1818C152.531 40.5455 152.653 40.9697 152.653 41.4545V44.1818Z" fill="#1F85A3"/>
<path d="M161.966 40.6061H158.436V46.9697H156.366V40.6061H153.749V38.6061H156.366V35.8788H158.436V38.6061H161.966V40.6061Z" fill="#1F85A3"/>
<path d="M165.314 36.9091H163.306V35.0909H165.314V36.9091ZM165.314 46.9697H163.306V38.6061H165.314V46.9697Z" fill="#1F85A3"/>
<path d="M176.393 44.1818C176.393 44.5455 176.332 44.8485 176.272 45.0909C176.211 45.3939 176.089 45.6364 175.906 45.8182C175.785 46 175.602 46.1818 175.419 46.3636C175.237 46.5455 175.054 46.6061 174.811 46.7273C174.628 46.8485 174.384 46.9091 174.202 46.9091C174.019 46.9091 173.776 46.9697 173.593 46.9697H169.941C169.636 46.9697 169.332 46.9091 169.028 46.8485C168.723 46.7879 168.419 46.6061 168.115 46.3636C167.81 46.1212 167.628 45.8788 167.384 45.5152C167.201 45.1515 167.08 44.7273 167.08 44.1818V41.4545C167.08 40.9697 167.201 40.4849 167.384 40.1212C167.567 39.7576 167.81 39.4545 168.115 39.2727C168.419 39.0303 168.723 38.9091 169.028 38.7879C169.332 38.6667 169.636 38.6667 169.941 38.6667H173.593C174.08 38.6667 174.567 38.7879 174.932 38.9697C175.298 39.1515 175.602 39.3939 175.785 39.697C175.967 40 176.15 40.303 176.272 40.6061C176.393 40.9091 176.393 41.2121 176.393 41.5152V44.1818ZM174.324 41.4545C174.324 41.1515 174.263 40.9697 174.141 40.8485C174.019 40.7273 173.776 40.6667 173.532 40.6667H169.88C169.636 40.6667 169.393 40.7273 169.271 40.8485C169.149 40.9697 169.089 41.2121 169.089 41.4545V44.1818C169.089 44.4242 169.149 44.6667 169.271 44.7879C169.393 44.9091 169.636 44.9697 169.88 44.9697H173.532C173.837 44.9697 174.019 44.9091 174.141 44.7879C174.263 44.6667 174.324 44.4242 174.324 44.1818V41.4545Z" fill="#1F85A3"/>
<path d="M187.35 46.9697H185.342V42.3636C185.342 42.1212 185.281 41.8788 185.22 41.6364C185.159 41.4545 184.976 41.2727 184.855 41.0909C184.733 40.9091 184.489 40.8485 184.307 40.7273C184.124 40.6667 183.881 40.6061 183.637 40.6061H180.107V46.9697H178.098V39.6364C178.098 39.5152 178.098 39.3939 178.159 39.2727C178.219 39.1515 178.28 39.0303 178.402 38.9697C178.524 38.9091 178.585 38.7879 178.706 38.7879C178.828 38.7879 178.95 38.7273 179.133 38.7273H183.698C183.942 38.7273 184.246 38.7273 184.489 38.7879C184.794 38.8485 185.037 38.9091 185.342 39.0909C185.646 39.2121 185.889 39.3939 186.133 39.5758C186.376 39.7576 186.62 40 186.803 40.303C186.985 40.6061 187.168 40.9091 187.29 41.2727C187.411 41.6364 187.472 42.0606 187.472 42.4849V46.9697H187.35Z" fill="#1F85A3"/>
<path d="M197.273 44.1818C197.273 44.5455 197.212 44.8485 197.151 45.0909C197.09 45.3939 196.968 45.6364 196.786 45.8182C196.603 46 196.481 46.1818 196.299 46.3636C196.116 46.5455 195.934 46.6061 195.69 46.7273C195.507 46.8485 195.264 46.9091 195.081 46.9091C194.899 46.9091 194.655 46.9697 194.473 46.9697H188.994V44.9697H194.412C194.716 44.9697 194.899 44.9091 195.02 44.7879C195.142 44.6667 195.203 44.4242 195.203 44.1818C195.203 43.6364 194.899 43.3939 194.412 43.3939H191.307C190.881 43.3939 190.455 43.3333 190.151 43.1515C189.846 42.9697 189.603 42.7879 189.42 42.5455C189.237 42.303 189.116 42.0606 188.994 41.8182C188.933 41.5758 188.872 41.2727 188.872 41.0909C188.872 40.6667 188.933 40.2424 189.116 39.9394C189.298 39.6364 189.481 39.3939 189.724 39.2121C189.968 39.0303 190.211 38.9091 190.516 38.7879C190.82 38.7273 191.064 38.6667 191.307 38.6667H196.238V40.6061H191.307C191.185 40.6061 191.125 40.6061 191.064 40.6667C191.003 40.7273 190.942 40.7273 190.942 40.7879C190.942 40.8485 190.881 40.8485 190.881 40.9091C190.881 40.9697 190.881 40.9697 190.881 41.0303C190.881 41.0909 190.881 41.1515 190.942 41.2121C190.942 41.2727 191.003 41.2727 191.064 41.3333C191.125 41.3333 191.125 41.3939 191.185 41.3939C191.246 41.3939 191.307 41.3939 191.307 41.3939H194.412C194.899 41.3939 195.386 41.5152 195.751 41.697C196.116 41.8788 196.421 42.1212 196.603 42.4242C196.847 42.7273 196.968 43.0303 197.09 43.3333C197.212 43.5758 197.273 43.8788 197.273 44.1818Z" fill="#1F85A3"/>
<path d="M52.7273 25.0755C52.7273 25.0755 52.7273 25.3226 52.7273 25.6933C52.7273 25.8169 52.7273 25.8786 52.7273 26.064C52.7273 26.1875 52.665 26.3729 52.665 26.4964C52.665 26.6818 52.6028 26.8671 52.6028 27.0525C52.5406 27.2378 52.5406 27.4231 52.4784 27.6085C52.2917 28.4116 51.9183 29.3383 51.3582 30.3886C50.7359 31.3771 49.9269 32.4273 48.7446 33.354C47.5622 34.2189 46.0687 35.0221 44.3885 35.331C44.2018 35.3928 43.9529 35.3928 43.704 35.4545L43.2684 35.3928H43.0817C43.0195 35.3928 43.1439 35.3928 42.9573 35.3928H42.895H42.8328C42.4594 35.3928 42.086 35.4545 41.526 35.3928C41.2771 35.3928 41.0281 35.3928 40.7792 35.331C40.5303 35.2692 40.2814 35.2692 40.0947 35.2074C39.8458 35.1456 39.5969 35.0839 39.4102 35.0221C39.1613 34.9603 38.9123 34.8985 38.7257 34.775C37.7922 34.4661 36.8588 33.9718 36.0498 33.354C35.2408 32.7362 34.4318 31.9949 33.8095 31.1299C33.1872 30.265 32.6894 29.2765 32.316 28.2263C31.9426 27.176 31.8182 26.064 31.8182 24.9519L31.8804 24.1488V23.9635C31.8804 23.9017 31.8804 23.8399 31.8804 23.7781L31.9426 23.3457C32.0049 23.0368 32.0049 22.7279 32.1293 22.4807L32.3782 21.6776C32.7516 20.6274 33.2495 19.6389 33.8718 18.774C34.4941 17.909 35.2408 17.1677 36.112 16.5499C36.9832 15.9321 37.8544 15.4378 38.7879 15.1289C39.7213 14.82 40.717 14.5729 41.6504 14.5729C42.1483 14.5111 42.5839 14.5729 43.0195 14.5729H43.2684H43.3929L43.704 14.6347C43.8907 14.6965 44.0774 14.6965 44.2641 14.7583C44.6997 14.8818 45.1975 14.9436 45.5709 15.1289C45.7576 15.1907 45.9443 15.2525 46.1932 15.3143C46.3799 15.3761 46.5666 15.4996 46.7532 15.5614C47.5 15.8703 48.1223 16.3028 48.7446 16.7352C49.9269 17.6619 50.7359 18.7122 51.3582 19.7007C51.9805 20.6891 52.2917 21.6776 52.4784 22.4807C52.5406 22.6661 52.5406 22.8514 52.6028 23.0368C52.665 23.2221 52.665 23.4074 52.665 23.531C52.7273 23.8399 52.7273 24.087 52.7273 24.3341C52.7273 24.7666 52.7273 25.0137 52.7273 25.0755ZM51.3582 25.0137C51.3582 25.0137 51.3582 24.8284 51.296 24.4577C51.296 24.2724 51.2338 24.0252 51.2338 23.7781C51.2338 23.6546 51.1715 23.4692 51.1715 23.3457C51.1093 23.2221 51.1093 23.0368 51.0471 22.8514C50.8604 22.1718 50.487 21.3687 49.927 20.6273C49.3669 19.8242 48.5579 19.0828 47.5 18.5268C47.0022 18.2797 46.4421 18.0326 45.8198 17.8473C45.6953 17.7855 45.5087 17.7855 45.3842 17.7237C45.2597 17.7237 45.0731 17.6619 44.8864 17.6619C44.5752 17.6001 44.2641 17.6001 44.0152 17.6001C43.8907 17.6001 43.6418 17.6001 43.4551 17.6001H43.1439H43.0195C42.9573 17.6001 43.0817 17.6001 43.0817 17.6001H43.0195C42.7083 17.6619 42.3972 17.6619 42.086 17.7855C41.4637 17.909 40.8415 18.2179 40.2814 18.5268C39.7213 18.8357 39.2235 19.2682 38.7257 19.7007C38.29 20.1331 37.8544 20.6891 37.5433 21.2451C37.4188 21.554 37.2321 21.8012 37.1077 22.1101C37.0455 22.2336 36.9832 22.419 36.921 22.5425C36.8588 22.6661 36.7965 22.8514 36.7965 22.975C36.7343 23.2839 36.6721 23.5928 36.6098 23.8399L36.5476 24.0252C36.5476 24.0252 36.5476 24.087 36.5476 24.1488V24.3341V24.643V24.8284V24.8902V24.9519C36.5476 24.8902 36.5476 25.0755 36.5476 24.8284C36.5476 25.4462 36.6721 26.1258 36.7965 26.7436C36.8588 26.9289 36.921 27.0525 36.921 27.176C36.9832 27.3614 37.0455 27.4849 37.1077 27.6085C37.2321 27.9174 37.3566 28.1645 37.5433 28.4734C37.8544 29.0294 38.29 29.5854 38.7257 30.0179C39.2235 30.4504 39.7213 30.8828 40.2814 31.1917C40.4058 31.3153 40.5925 31.3153 40.717 31.4388C40.8415 31.5006 41.0281 31.6242 41.1526 31.6242C41.2771 31.686 41.4637 31.7477 41.5882 31.8095C41.7127 31.8713 41.8994 31.8713 42.0238 31.9331C42.2727 32.0566 42.7083 32.0566 43.0817 32.1184H43.1439H43.2062C43.0817 32.1184 43.1439 32.1184 43.1439 32.1184H43.2684H43.5173C43.704 32.1184 43.8285 32.1802 44.0152 32.1184C45.322 32.1184 46.5043 31.8095 47.5622 31.2535C48.6201 30.6975 49.4291 29.8943 49.9892 29.153C50.6115 28.3498 50.9226 27.5467 51.1093 26.9289C51.1715 26.7436 51.2338 26.62 51.2338 26.4347C51.296 26.3111 51.296 26.1258 51.296 26.0022C51.296 25.8786 51.3582 25.7551 51.3582 25.6315C51.3582 25.508 51.3582 25.3844 51.3582 25.3226C51.3582 25.1991 51.3582 25.0137 51.3582 25.0137Z" fill="url(#paint0_linear_1_2)"/>
<path d="M0 25.0309C0 25.0309 0 24.7834 0 24.4121C0 24.2884 0 24.2265 0 24.0408C0 23.9171 0.0598802 23.7314 0.0598802 23.6077C0.0598802 23.422 0.11976 23.2364 0.11976 23.0507C0.179641 22.8651 0.179641 22.6794 0.239521 22.4938C0.419162 21.6893 0.778443 20.7611 1.31737 19.7091C1.91617 18.719 2.69461 17.667 3.83234 16.7388C4.97006 15.8725 6.40719 15.068 8.02395 14.7586C8.20359 14.6967 8.44311 14.6967 8.68263 14.6348L8.98204 14.573H9.16168C9.1018 14.573 9.28144 14.573 9.28144 14.573H9.34132H9.4012C9.76048 14.573 10.1198 14.5111 10.6587 14.573C10.8982 14.573 11.1377 14.573 11.3772 14.6348C11.6168 14.6967 11.8563 14.6967 12.0359 14.7586C12.2754 14.8205 12.515 14.8824 12.6946 14.9442C12.9341 15.0061 13.1737 15.068 13.3533 15.1918C14.2515 15.5012 15.1497 15.9962 15.9281 16.615C16.7066 17.2339 17.485 17.9764 18.0838 18.8428C18.6826 19.7091 19.1617 20.6992 19.521 21.7512C19.8802 22.8032 20 23.9171 20 25.0309L19.9401 25.8354V26.021C19.9401 26.0829 19.9401 26.1448 19.9401 26.2067L19.8802 26.6399C19.8204 26.9493 19.8204 27.2587 19.7006 27.5062L19.4611 28.3107C19.1018 29.3626 18.6228 30.3528 18.024 31.2191C17.4252 32.0854 16.7066 32.828 15.8683 33.4468C15.0299 34.0657 14.1916 34.5607 13.2934 34.8701C12.3952 35.1795 11.4371 35.427 10.5389 35.427C10.0599 35.4889 9.64072 35.427 9.22156 35.427H8.98204H8.86228H8.80239C8.62275 35.3652 8.44311 35.3652 8.26347 35.3033C7.84431 35.1795 7.36527 35.1176 7.00599 34.932C6.82635 34.8701 6.64671 34.8082 6.40719 34.7463C6.22754 34.6845 6.0479 34.5607 5.86826 34.4988C5.1497 34.1894 4.5509 33.7562 3.9521 33.3231C2.81437 32.3948 2.03593 31.3429 1.43713 30.3528C0.838323 29.3626 0.538922 28.3725 0.359281 27.5681C0.299401 27.3824 0.299401 27.1968 0.239521 27.0112C0.179641 26.8255 0.179641 26.6399 0.179641 26.5161C0.11976 26.2067 0.11976 25.9592 0.11976 25.7116C0 25.3403 0 25.0928 0 25.0309ZM1.31737 25.0928C1.31737 25.0928 1.31737 25.2785 1.37725 25.6498C1.37725 25.8354 1.43713 26.0829 1.43713 26.3305C1.43713 26.4542 1.49701 26.6399 1.49701 26.7636C1.55689 26.8874 1.55689 27.073 1.61677 27.2587C1.79641 27.9394 2.15569 28.7438 2.69461 29.4864C3.23353 30.2909 4.07186 31.0953 5.02994 31.6523C5.50898 31.8998 6.0479 32.1473 6.64671 32.333C6.76647 32.3948 6.94611 32.3948 7.06587 32.4567C7.18563 32.4567 7.36527 32.5186 7.54491 32.5186C7.84431 32.5805 8.14371 32.5805 8.38323 32.5805C8.50299 32.5805 8.74251 32.5805 8.92216 32.5805H9.22156H9.34132C9.4012 32.5805 9.28144 32.5805 9.28144 32.5805H9.34132C9.64072 32.5186 9.94012 32.5186 10.2395 32.3948C10.8383 32.2711 11.4371 31.9617 11.976 31.6523C12.515 31.3429 12.994 30.9097 13.4731 30.4765C13.8922 30.0433 14.3114 29.4864 14.6108 28.9295C14.7305 28.6201 14.9102 28.3725 15.0299 28.0631C15.0898 27.9394 15.1497 27.7537 15.2096 27.63C15.2695 27.5062 15.3293 27.3206 15.3293 27.1968C15.3892 26.8874 15.4491 26.578 15.509 26.3305L15.5689 26.1448C15.5689 26.1448 15.5689 26.0829 15.5689 26.021V25.8354V25.526V25.3403V25.2785V25.2166C15.5689 25.2785 15.5689 25.0928 15.5689 25.3403C15.5689 24.7215 15.4491 24.0408 15.3293 23.422C15.2695 23.2364 15.2096 23.1126 15.2096 22.9888C15.1497 22.8032 15.0898 22.6794 15.0299 22.5557C14.9102 22.2463 14.7904 21.9987 14.6108 21.6893C14.3114 21.1324 13.8922 20.5755 13.4731 20.1423C12.994 19.7091 12.515 19.276 11.976 18.9665C11.8563 18.8428 11.6766 18.8428 11.5569 18.719C11.4371 18.6571 11.2575 18.5334 11.1377 18.5334C11.018 18.4715 10.8383 18.4096 10.7186 18.3477C10.5988 18.2859 10.4192 18.2859 10.2994 18.224C10.0599 18.1002 9.64072 18.1002 9.28144 18.0383H9.22156H9.16168C9.16168 18.0383 9.28144 18.0383 9.22156 18.0383H9.1018H8.86228C8.68263 18.0383 8.56287 17.9764 8.38323 18.0383C7.12575 18.0383 5.92814 18.3477 4.97006 18.9047C3.9521 19.4616 3.17365 20.2661 2.63473 21.0086C2.03593 21.8131 1.73653 22.6176 1.55689 23.2364C1.49701 23.422 1.43713 23.5458 1.43713 23.7314C1.37725 23.8552 1.37725 24.0408 1.37725 24.1646C1.37725 24.2884 1.31737 24.4121 1.31737 24.5359C1.31737 24.6597 1.31737 24.7834 1.31737 24.8453C1.31737 24.9072 1.31737 25.0928 1.31737 25.0928Z" fill="url(#paint1_linear_1_2)"/>
<path d="M26.8491 49.8755C26.8491 49.8755 26.6016 49.8755 26.2303 49.8755C26.1065 49.8755 26.0447 49.8755 25.859 49.8755C25.7353 49.8755 25.5496 49.8133 25.4258 49.8133C25.2402 49.8133 25.0546 49.7511 24.8689 49.7511C24.6833 49.6889 24.4976 49.6889 24.312 49.6266C23.5075 49.4399 22.5793 49.0666 21.5273 48.5065C20.5372 47.8842 19.4852 47.0752 18.557 45.8929C17.6907 44.7105 16.8862 43.217 16.5768 41.5368C16.5149 41.3501 16.5149 41.1012 16.453 40.8523L16.3911 40.5411V40.3544C16.3911 40.4167 16.3911 40.23 16.3911 40.23V40.1677V40.1055C16.3911 39.7321 16.3293 39.3588 16.3911 38.7987C16.3911 38.5498 16.3911 38.3009 16.453 38.0519C16.5149 37.803 16.5149 37.5541 16.5768 37.3674C16.6387 37.1185 16.7005 36.8696 16.7624 36.6829C16.8243 36.434 16.8862 36.1851 17.01 35.9984C17.3194 35.0649 17.8144 34.1315 18.4332 33.3225C19.052 32.5135 19.7946 31.7045 20.661 31.0823C21.5273 30.46 22.5174 29.9621 23.5694 29.5887C24.6214 29.2154 25.7353 29.0909 26.8491 29.0909L27.6536 29.1531H27.8392C27.9011 29.1531 27.963 29.1531 28.0249 29.1531L28.458 29.2154C28.7675 29.2776 29.0769 29.2776 29.3244 29.4021L30.1288 29.651C31.1808 30.0244 32.1709 30.5222 33.0373 31.1445C33.9036 31.7668 34.6462 32.5135 35.265 33.3847C35.8838 34.256 36.3789 35.1272 36.6883 36.0606C36.9977 36.994 37.2452 37.9897 37.2452 38.9232C37.3071 39.421 37.2452 39.8566 37.2452 40.2922V40.5411V40.6656L37.1833 40.9767C37.1215 41.1634 37.1215 41.3501 37.0596 41.5368C36.9358 41.9724 36.8739 42.4702 36.6883 42.8436C36.6264 43.0303 36.5645 43.217 36.5026 43.4659C36.4408 43.6526 36.317 43.8393 36.2551 44.026C35.9457 44.7727 35.5125 45.395 35.0794 46.0173C34.1511 47.1997 33.0992 48.0087 32.1091 48.631C31.119 49.2532 30.1288 49.5644 29.3244 49.7511C29.1387 49.8133 28.9531 49.8133 28.7675 49.8755C28.5818 49.9378 28.3962 49.9378 28.2724 49.9378C27.963 50 27.7155 50 27.4679 50C27.0967 49.8755 26.8491 49.8755 26.8491 49.8755ZM26.8491 48.5065C26.8491 48.5065 27.0348 48.5065 27.4061 48.4443C27.5917 48.4443 27.8392 48.382 28.0868 48.382C28.2105 48.382 28.3962 48.3198 28.5199 48.3198C28.6437 48.2576 28.8293 48.2576 29.015 48.1953C29.6957 48.0087 30.5001 47.6353 31.2427 47.0752C32.0472 46.5152 32.7898 45.7062 33.3467 44.6483C33.5942 44.1504 33.8417 43.5904 34.0274 42.9681C34.0893 42.8436 34.0893 42.6569 34.1511 42.5325C34.1511 42.408 34.213 42.2213 34.213 42.0346C34.2749 41.7235 34.2749 41.4123 34.2749 41.1634C34.2749 41.039 34.2749 40.79 34.2749 40.6034V40.2922V40.1677C34.2749 40.1055 34.2749 40.23 34.2749 40.23V40.1677C34.213 39.8566 34.213 39.5455 34.0893 39.2343C33.9655 38.612 33.6561 37.9897 33.3467 37.4297C33.0373 36.8696 32.6041 36.3718 32.1709 35.8739C31.7378 35.4383 31.1808 35.0027 30.6239 34.6916C30.3145 34.5671 30.067 34.3804 29.7576 34.256C29.6338 34.1937 29.4482 34.1315 29.3244 34.0693C29.2006 34.007 29.015 33.9448 28.8912 33.9448C28.5818 33.8826 28.2724 33.8203 28.0249 33.7581L27.7155 33.6959C27.7155 33.6959 27.6536 33.6959 27.5917 33.6959H27.4061H27.0967H26.911H26.8491H26.7872C26.8491 33.6959 26.6635 33.6959 26.911 33.6959C26.2922 33.6959 25.6115 33.8203 24.9927 33.9448C24.807 34.007 24.6833 34.0693 24.5595 34.0693C24.3739 34.1315 24.2501 34.1937 24.1263 34.256C23.8169 34.3804 23.5694 34.5049 23.26 34.6916C22.7031 35.0027 22.1461 35.4383 21.713 35.8739C21.2798 36.3718 20.8466 36.8696 20.5372 37.4297C20.4134 37.5541 20.4134 37.7408 20.2897 37.8653C20.2278 37.9897 20.104 38.1764 20.104 38.3009C20.0422 38.4253 19.9803 38.612 19.9184 38.7365C19.8565 38.8609 19.8565 39.0476 19.7946 39.1721C19.6709 39.421 19.6709 39.8566 19.609 40.23V40.2922V40.3544C19.609 40.3544 19.609 40.23 19.609 40.2922V40.4167V40.6656C19.609 40.8523 19.5471 40.9767 19.609 41.1634C19.609 42.4702 19.9184 43.6526 20.4753 44.7105C21.0323 45.7684 21.8367 46.5774 22.5793 47.1374C23.3838 47.7597 24.1882 48.0709 24.807 48.2576C24.9927 48.3198 25.1164 48.382 25.3021 48.382C25.4259 48.4443 25.6115 48.4443 25.7353 48.4443C25.859 48.4443 25.9828 48.5065 26.1065 48.5065C26.2303 48.5065 26.3541 48.5065 26.416 48.5065C26.6635 48.5065 26.911 48.5065 26.8491 48.5065Z" fill="url(#paint2_linear_1_2)"/>
<path d="M25.8781 0C25.8781 0 26.1257 0 26.497 0C26.6207 0 26.6826 0 26.8683 0C26.992 0 27.1777 0.0598802 27.3014 0.0598802C27.4871 0.0598802 27.6727 0.11976 27.8584 0.11976C28.044 0.179641 28.2296 0.179641 28.4153 0.239521C29.2198 0.419162 30.148 0.778443 31.2 1.31737C32.1901 1.91617 33.2421 2.69461 34.1703 3.83234C35.0366 4.97006 35.8411 6.40719 36.1505 8.02395C36.2124 8.20359 36.2124 8.44311 36.2742 8.68263L36.3361 8.98204V9.16168C36.3361 9.22156 36.3361 9.1018 36.3361 9.28144V9.34132V9.4012C36.3361 9.76048 36.398 10.1198 36.3361 10.6587C36.3361 10.8982 36.3361 11.1377 36.2742 11.3772C36.2124 11.6168 36.2124 11.8563 36.1505 12.0359C36.0886 12.2754 36.0267 12.515 35.9648 12.6946C35.903 12.9341 35.8411 13.1737 35.7173 13.3533C35.4079 14.2515 34.9129 15.1497 34.294 15.9281C33.6752 16.7066 32.9326 17.485 32.0663 18.0838C31.2 18.6826 30.2099 19.1617 29.1579 19.521C28.1059 19.8802 26.992 20 25.8781 20L25.0737 19.9401H24.888C24.8262 19.9401 24.7643 19.9401 24.7024 19.9401L24.2692 19.8802C23.9598 19.8204 23.6504 19.8204 23.4029 19.7006H22.5984C21.5464 19.3413 20.5563 18.8623 19.69 18.2635C18.8237 17.6647 18.0811 16.9461 17.4623 16.1078C16.8434 15.2695 16.3484 14.4311 16.039 13.5329C15.7296 12.6347 15.482 11.6766 15.482 10.7784C15.4202 10.2994 15.482 9.88024 15.482 9.46108V9.22156V9.1018L15.5439 8.80239C15.6058 8.62275 15.6058 8.44311 15.6677 8.26347C15.7915 7.84431 15.8533 7.36527 16.039 7.00599C16.1009 6.82635 16.1627 6.64671 16.2246 6.40719C16.2865 6.22754 16.4103 6.0479 16.4722 5.86826C16.7816 5.1497 17.2147 4.5509 17.6479 3.9521C18.5761 2.81437 19.6281 2.03593 20.6182 1.43713C21.6083 0.838323 22.5984 0.538922 23.4029 0.359281C23.5885 0.299401 23.7742 0.299401 23.9598 0.239521C24.1455 0.179641 24.3311 0.179641 24.4549 0.179641C24.7643 0.11976 25.0118 0.11976 25.2593 0.11976C25.6306 0 25.8163 0 25.8781 0ZM25.8163 1.31737C25.8163 1.31737 25.6306 1.31737 25.2593 1.37725C25.0737 1.37725 24.8262 1.43713 24.5786 1.43713C24.4549 1.43713 24.2692 1.49701 24.1455 1.49701C24.0217 1.55689 23.8361 1.55689 23.6504 1.61677C22.9697 1.79641 22.1653 2.15569 21.4227 2.69461C20.6182 3.23353 19.8756 4.01198 19.3187 5.02994C19.0712 5.50898 18.8237 6.0479 18.638 6.64671C18.5761 6.76647 18.5761 6.94611 18.5142 7.06587C18.5142 7.18563 18.4524 7.36527 18.4524 7.54491C18.3905 7.84431 18.3905 8.14371 18.3905 8.38323C18.3905 8.50299 18.3905 8.74251 18.3905 8.92216V9.22156V9.34132C18.3905 9.4012 18.3905 9.28144 18.3905 9.28144V9.34132C18.4524 9.64072 18.4524 9.94012 18.5761 10.2395C18.6999 10.8383 19.0093 11.4371 19.3187 11.976C19.6281 12.515 20.0613 12.994 20.4945 13.4731C20.9276 13.8922 21.4846 14.3114 22.0415 14.6108C22.3509 14.7305 22.5984 14.9102 22.9078 15.0299C23.0316 15.0898 23.2172 15.1497 23.341 15.2096C23.4648 15.2695 23.6504 15.3293 23.7742 15.3293C24.0836 15.3892 24.393 15.4491 24.6405 15.509L24.8262 15.5689C24.8262 15.5689 24.888 15.5689 24.9499 15.5689H25.1356H25.445H25.6306H25.6925H25.7544C25.6925 15.5689 25.8782 15.5689 25.6306 15.5689C26.2494 15.5689 26.9301 15.4491 27.549 15.3293C27.7346 15.2695 27.8584 15.2096 27.9821 15.2096C28.1678 15.1497 28.2915 15.0898 28.4153 15.0299C28.7247 14.9102 28.9722 14.7904 29.2816 14.6108C29.8386 14.3114 30.3955 13.8922 30.8287 13.4731C31.2618 12.994 31.695 12.515 32.0044 11.976C32.1282 11.8563 32.1282 11.6766 32.2519 11.5569C32.3138 11.4371 32.4376 11.2575 32.4376 11.1377C32.4995 11.018 32.5614 10.8383 32.6232 10.7186C32.6851 10.5988 32.6851 10.4192 32.747 10.2994C32.8708 10.0599 32.8708 9.64072 32.9326 9.28144V9.22156V9.16168C32.9326 9.28144 32.9326 9.22156 32.9326 9.22156V9.1018V8.86228C32.9326 8.68263 32.9945 8.56287 32.9326 8.38323C32.9326 7.12575 32.6232 5.98802 32.0663 4.97006C31.5094 3.9521 30.7049 3.17365 29.9623 2.63473C29.1579 2.03593 28.3534 1.73653 27.7346 1.55689C27.549 1.49701 27.4252 1.43713 27.2395 1.43713C27.1158 1.37725 26.9301 1.37725 26.8064 1.37725C26.6826 1.37725 26.5588 1.31737 26.4351 1.31737C26.3113 1.31737 26.1876 1.31737 26.1257 1.31737C26.0019 1.31737 25.8163 1.31737 25.8163 1.31737Z" fill="url(#paint3_linear_1_2)"/>
</g>
<defs>
<linearGradient id="paint0_linear_1_2" x1="31.7312" y1="25.0237" x2="52.7147" y2="25.0237" gradientUnits="userSpaceOnUse">
<stop stop-color="#3B879A"/>
<stop offset="1" stop-color="#00D1E3"/>
</linearGradient>
<linearGradient id="paint1_linear_1_2" x1="20.1862" y1="25.0861" x2="-0.00574809" y2="25.0861" gradientUnits="userSpaceOnUse">
<stop stop-color="#3B879A"/>
<stop offset="1" stop-color="#00D1E3"/>
</linearGradient>
<linearGradient id="paint2_linear_1_2" x1="26.8629" y1="49.8772" x2="26.8629" y2="28.8928" gradientUnits="userSpaceOnUse">
<stop stop-color="#3B879A"/>
<stop offset="1" stop-color="#00D1E3"/>
</linearGradient>
<linearGradient id="paint3_linear_1_2" x1="25.8431" y1="0.0141916" x2="25.8431" y2="20.2055" gradientUnits="userSpaceOnUse">
<stop stop-color="#3B879A"/>
<stop offset="1" stop-color="#00D1E3"/>
</linearGradient>
<clipPath id="clip0_1_2">
<rect width="225" height="50" fill="white"/>
</clipPath>
</defs>
</svg>
