<?xml version="1.0" encoding="UTF-8"?>
<svg width="225px" height="50px" viewBox="0 0 225 50" version="1.1" xmlns="http://www.w3.org/2000/svg" xmlns:xlink="http://www.w3.org/1999/xlink">
    <!-- Generator: Sketch 48.2 (47327) - http://www.bohemiancoding.com/sketch -->
    <title>newco_logo1_wit</title>
    <desc>Created with Sketch.</desc>
    <defs>
        <linearGradient x1="-0.41577381%" y1="50.1135259%" x2="99.939881%" y2="50.1135259%" id="linearGradient-1">
            <stop stop-color="#3B879A" offset="0%"></stop>
            <stop stop-color="#00D1E3" offset="100%"></stop>
        </linearGradient>
        <linearGradient x1="100.931138%" y1="50.4116738%" x2="-0.028742515%" y2="50.4116738%" id="linearGradient-2">
            <stop stop-color="#3B879A" offset="0%"></stop>
            <stop stop-color="#00D1E3" offset="100%"></stop>
        </linearGradient>
        <linearGradient x1="50.2139757%" y1="99.4125%" x2="50.2139757%" y2="-0.947321429%" id="linearGradient-3">
            <stop stop-color="#3B879A" offset="0%"></stop>
            <stop stop-color="#00D1E3" offset="100%"></stop>
        </linearGradient>
        <linearGradient x1="49.6845117%" y1="0.0709580838%" x2="49.6845117%" y2="101.027545%" id="linearGradient-4">
            <stop stop-color="#3B879A" offset="0%"></stop>
            <stop stop-color="#00D1E3" offset="100%"></stop>
        </linearGradient>
    </defs>
    <g id="FOOTER-3" stroke="none" stroke-width="1" fill="none" fill-rule="evenodd" transform="translate(-80.000000, -141.000000)">
        <g id="FOOTER" fill-rule="nonzero">
            <g id="newco_logo1_wit" transform="translate(80.000000, 141.000000)">
                <g id="Group" transform="translate(59.090909, 5.454545)" fill="#FFFFFF">
                    <path d="M28.3898021,25.1515152 L22.3455216,25.1515152 L22.3455216,11.2727273 C22.3455216,10.4848485 22.223415,9.75757576 21.9181483,9.15151515 C21.6739349,8.54545455 21.2465616,8 20.8191882,7.51515152 C20.3307615,7.09090909 19.7812814,6.72727273 19.1707481,6.48484848 C18.5602147,6.24242424 17.888628,6.12121212 17.1559879,6.12121212 L6.53270715,6.12121212 L6.53270715,25.1515152 L0.488426702,25.1515152 L0.488426702,3.09090909 C0.488426702,2.66666667 0.54948004,2.3030303 0.732640054,1.93939394 C0.915800067,1.57575758 1.09896008,1.27272727 1.40422677,0.96969697 C1.70949346,0.727272727 2.01476015,0.484848485 2.38108017,0.303030303 C2.7474002,0.121212121 3.17477357,0.0606060606 3.60214693,0.0606060606 L17.2780946,0.0606060606 C18.0107347,0.0606060606 18.8654814,0.121212121 19.7202281,0.303030303 C20.5749748,0.484848485 21.4297216,0.727272727 22.223415,1.15151515 C23.0781617,1.51515152 23.8718551,2 24.6044951,2.60606061 C25.3371352,3.21212121 26.0087219,3.87878788 26.6192553,4.72727273 C27.2297887,5.57575758 27.657162,6.48484848 28.0234821,7.57575758 C28.3898021,8.66666667 28.5119088,9.87878788 28.5119088,11.2121212 L28.5119088,25.1515152 L28.3898021,25.1515152 Z" id="Shape"></path>
                    <path d="M60.8091245,8.42424242 C60.8091245,9.27272727 60.6870178,10.1818182 60.3817511,11.1515152 C60.0764844,12.1212121 59.5880577,13.030303 58.916471,13.8181818 C58.2448843,14.6666667 57.3901375,15.3333333 56.3522308,15.8787879 C55.3143241,16.4242424 53.9711506,16.7272727 52.4448172,16.7272727 L41.5162697,16.7272727 L41.5162697,11.030303 L52.5058705,11.030303 C53.3606172,11.030303 53.9711506,10.7878788 54.398524,10.3030303 C54.8258973,9.81818182 55.0701107,9.15151515 55.0701107,8.42424242 C55.0701107,7.63636364 54.8258973,7.03030303 54.3374706,6.54545455 C53.8490439,6.12121212 53.2385106,5.87878788 52.5058705,5.87878788 L41.5162697,5.87878788 C40.661523,5.87878788 40.0509896,6.12121212 39.6236162,6.60606061 C39.1962429,7.09090909 38.9520295,7.75757576 38.9520295,8.48484848 L38.9520295,16.9090909 C38.9520295,17.6969697 39.1962429,18.3636364 39.6846696,18.7878788 C40.1730963,19.2121212 40.844683,19.4545455 41.577323,19.4545455 L52.5058705,19.4545455 L52.5058705,25.2121212 L41.5162697,25.2121212 C40.661523,25.2121212 39.7457229,25.0909091 38.7688695,24.7878788 C37.7920161,24.4848485 36.876216,24 36.0825226,23.3333333 C35.2277759,22.6666667 34.5561892,21.8181818 34.0067092,20.7878788 C33.4572291,19.7575758 33.1519624,18.4242424 33.1519624,16.9090909 L33.1519624,8.42424242 C33.1519624,7.57575758 33.2740691,6.66666667 33.5793358,5.6969697 C33.8846025,4.72727273 34.3730292,3.81818182 35.0446159,3.03030303 C35.7162026,2.18181818 36.5709493,1.51515152 37.6088561,0.96969697 C38.6467628,0.424242424 39.9899363,0.121212121 41.5162697,0.121212121 L52.5058705,0.121212121 C53.3606172,0.121212121 54.2764173,0.242424242 55.2532707,0.545454545 C56.2301241,0.848484848 57.1459242,1.33333333 57.9396176,2 C58.7943643,2.66666667 59.465951,3.51515152 60.0154311,4.54545455 C60.5649111,5.57575758 60.8091245,6.90909091 60.8091245,8.42424242 Z" id="Shape"></path>
                    <path d="M106.477021,0.121212121 C105.500168,2.24242424 104.462261,4.36363636 103.363301,6.48484848 C102.264341,8.54545455 101.043274,10.5454545 99.8222073,12.3636364 C98.6011406,14.2424242 97.3800738,15.9393939 96.0979537,17.5151515 C94.8158336,19.0909091 93.5337135,20.4242424 92.3126468,21.5757576 C91.09158,22.7272727 89.8094599,23.5757576 88.6494465,24.2424242 C87.4283797,24.9090909 86.3294197,25.2121212 85.2915129,25.2121212 C84.8641396,25.2121212 84.4367662,25.1515152 84.0704462,24.969697 C83.7041261,24.7878788 83.3988594,24.6060606 83.0935928,24.3030303 C82.7883261,24.0606061 82.6051661,23.6969697 82.422006,23.3333333 C82.238846,22.969697 82.1777927,22.5454545 82.1777927,22.1212121 L82.1777927,10.9090909 L70.1502851,24.2424242 C69.8450185,24.5454545 69.4786984,24.7878788 69.1123784,24.9090909 C68.7460584,25.030303 68.3797383,25.1515152 67.952365,25.1515152 C67.5249916,25.1515152 67.1586716,25.0909091 66.7923516,24.9090909 C66.4260315,24.7272727 66.1207648,24.5454545 65.8154982,24.2424242 C65.5102315,24 65.3270715,23.6363636 65.1439114,23.2727273 C64.9607514,22.9090909 64.8996981,22.4848485 64.8996981,22.0606061 L64.8996981,0.121212121 L70.9439785,0.121212121 L70.9439785,14.4242424 L83.0325394,1.03030303 C83.4599128,0.606060606 84.0093928,0.303030303 84.5588729,0.181818182 C85.1694062,0.0606060606 85.7188863,0.121212121 86.3294197,0.363636364 C86.8788997,0.606060606 87.3673264,0.96969697 87.6725931,1.45454545 C87.9778598,1.93939394 88.1610198,2.48484848 88.1610198,3.09090909 L88.1610198,17.3939394 C89.4431399,16.1212121 90.6642066,14.8484848 91.7021134,13.4545455 C92.7400201,12.0606061 93.7168735,10.6060606 94.6326736,9.15151515 C95.5484737,7.6969697 96.4032204,6.18181818 97.1969138,4.66666667 C97.9906072,3.15151515 98.7843006,1.63636364 99.5169406,0.121212121 L106.477021,0.121212121 Z" id="Shape"></path>
                    <path d="M133.035223,25.1515152 L116.550822,25.1515152 C115.696075,25.1515152 114.780275,25.030303 113.803422,24.7272727 C112.826568,24.4242424 111.910768,23.9393939 111.056021,23.2727273 C110.201275,22.6060606 109.529688,21.7575758 108.919155,20.6666667 C108.369675,19.5757576 108.064408,18.3030303 108.064408,16.7272727 L108.064408,8.54545455 C108.064408,8 108.125461,7.39393939 108.247568,6.72727273 C108.369675,6.12121212 108.613888,5.45454545 108.858101,4.84848485 C109.102315,4.24242424 109.529688,3.63636364 109.957061,3.03030303 C110.384435,2.48484848 110.933915,1.93939394 111.544448,1.51515152 C112.154982,1.09090909 112.887622,0.727272727 113.742368,0.484848485 C114.597115,0.242424242 115.512915,0.121212121 116.550822,0.121212121 L133.035223,0.121212121 L133.035223,6.12121212 L116.550822,6.12121212 C115.757128,6.12121212 115.146595,6.3030303 114.719222,6.72727273 C114.291848,7.15151515 114.108688,7.75757576 114.108688,8.60606061 L114.108688,16.7272727 C114.108688,17.5151515 114.291848,18.1212121 114.719222,18.5454545 C115.146595,18.969697 115.757128,19.1515152 116.550822,19.1515152 L132.97417,19.1515152 L132.97417,25.1515152 L133.035223,25.1515152 Z" id="Shape"></path>
                    <path d="M165.271385,16.7272727 C165.271385,17.7575758 165.149279,18.6666667 164.905065,19.5151515 C164.660852,20.3636364 164.294532,21.0909091 163.867159,21.6969697 C163.439785,22.3030303 162.951359,22.8484848 162.340825,23.2727273 C161.791345,23.6969697 161.180812,24.0606061 160.509225,24.3636364 C159.837638,24.6666667 159.227105,24.8484848 158.616572,24.969697 C157.944985,25.0909091 157.334452,25.1515152 156.784971,25.1515152 L145.856424,25.1515152 C145.001677,25.1515152 144.085877,25.030303 143.109024,24.7272727 C142.13217,24.4242424 141.21637,23.9393939 140.361624,23.2727273 C139.506877,22.6060606 138.83529,21.7575758 138.224757,20.6666667 C137.675277,19.5757576 137.37001,18.3030303 137.37001,16.7272727 L137.37001,8.54545455 C137.37001,7.03030303 137.675277,5.6969697 138.224757,4.60606061 C138.774237,3.51515152 139.506877,2.66666667 140.361624,2 C141.21637,1.33333333 142.13217,0.848484848 143.109024,0.545454545 C144.085877,0.242424242 145.001677,0.121212121 145.856424,0.121212121 L156.784971,0.121212121 C158.311305,0.121212121 159.654478,0.424242424 160.753438,0.96969697 C161.852399,1.51515152 162.707145,2.24242424 163.378732,3.09090909 C164.050319,3.93939394 164.538745,4.84848485 164.844012,5.81818182 C165.149279,6.78787879 165.271385,7.6969697 165.271385,8.54545455 L165.271385,16.7272727 Z M159.227105,8.60606061 C159.227105,7.75757576 159.043945,7.15151515 158.616572,6.72727273 C158.189198,6.3030303 157.578665,6.12121212 156.784971,6.12121212 L145.856424,6.12121212 C145.062731,6.12121212 144.452197,6.3030303 144.024824,6.72727273 C143.597451,7.15151515 143.414291,7.75757576 143.414291,8.54545455 L143.414291,16.7272727 C143.414291,17.5151515 143.597451,18.1212121 144.024824,18.5454545 C144.452197,18.969697 145.062731,19.1515152 145.856424,19.1515152 L156.784971,19.1515152 C157.639718,19.1515152 158.250252,18.969697 158.616572,18.5454545 C159.043945,18.1212121 159.227105,17.5151515 159.227105,16.7272727 L159.227105,8.60606061 Z" id="Shape"></path>
                </g>
                <g id="Group" transform="translate(59.090909, 34.545455)" fill="#1F85A3">
                    <path d="M8.82659191,12.4242424 L3.34801762,12.4242424 C3.04365238,12.4242424 2.73928714,12.3636364 2.43492191,12.3030303 C2.13055667,12.1818182 1.82619143,12.0606061 1.52182619,11.8181818 C1.21746095,11.5757576 1.03484181,11.3333333 0.79134962,10.969697 C0.608730477,10.6060606 0.486984381,10.1818182 0.486984381,9.63636364 L0.486984381,6.90909091 C0.486984381,6.72727273 0.486984381,6.54545455 0.547857429,6.3030303 C0.608730477,6.12121212 0.669603524,5.87878788 0.730476572,5.6969697 C0.852222667,5.51515152 0.973968763,5.27272727 1.09571486,5.09090909 C1.21746095,4.90909091 1.4000801,4.72727273 1.64357229,4.60606061 C1.82619143,4.48484848 2.06968362,4.36363636 2.37404886,4.24242424 C2.6784141,4.12121212 2.98277934,4.12121212 3.28714457,4.12121212 L8.76571886,4.12121212 L8.76571886,6.06060606 L3.28714457,6.06060606 C3.04365238,6.06060606 2.80016019,6.12121212 2.6784141,6.24242424 C2.556668,6.36363636 2.49579495,6.60606061 2.49579495,6.84848485 L2.49579495,9.57575758 C2.49579495,9.81818182 2.556668,10.0606061 2.6784141,10.1818182 C2.80016019,10.3030303 3.04365238,10.3636364 3.28714457,10.3636364 L8.76571886,10.3636364 L8.76571886,12.4242424 L8.82659191,12.4242424 Z" id="Shape"></path>
                    <path d="M19.5402483,9.63636364 C19.5402483,10 19.4793753,10.3030303 19.4185022,10.5454545 C19.3576292,10.8484848 19.2358831,11.0909091 19.0532639,11.2727273 C18.8706448,11.4545455 18.7488987,11.6363636 18.5662795,11.8181818 C18.3836604,12 18.2010412,12.0606061 17.9575491,12.1818182 C17.7749299,12.3030303 17.5314377,12.3636364 17.3488186,12.3636364 C17.1053264,12.4242424 16.9227072,12.4242424 16.7400881,12.4242424 L13.0877052,12.4242424 C12.78334,12.4242424 12.4789748,12.3636364 12.1746095,12.3030303 C11.8702443,12.1818182 11.5658791,12.0606061 11.2615138,11.8181818 C10.9571486,11.5757576 10.7745294,11.3333333 10.5310372,10.969697 C10.2875451,10.6060606 10.226672,10.1818182 10.226672,9.63636364 L10.226672,6.90909091 C10.226672,6.42424242 10.3484181,5.93939394 10.5310372,5.57575758 C10.7136564,5.21212121 10.9571486,4.90909091 11.2615138,4.72727273 C11.5658791,4.48484848 11.8702443,4.36363636 12.1746095,4.24242424 C12.4789748,4.12121212 12.78334,4.12121212 13.0877052,4.12121212 L16.7400881,4.12121212 C17.2270725,4.12121212 17.7140569,4.24242424 18.0792952,4.42424242 C18.4445334,4.60606061 18.7488987,4.84848485 18.9315178,5.15151515 C19.114137,5.45454545 19.2967561,5.75757576 19.4185022,6.06060606 C19.5402483,6.36363636 19.5402483,6.66666667 19.5402483,6.96969697 L19.5402483,9.63636364 Z M17.5314377,6.90909091 C17.5314377,6.60606061 17.4705647,6.42424242 17.3488186,6.3030303 C17.2270725,6.18181818 16.9835803,6.12121212 16.7400881,6.12121212 L13.0877052,6.12121212 C12.8442131,6.12121212 12.6007209,6.18181818 12.4789748,6.3030303 C12.3572287,6.42424242 12.2963556,6.66666667 12.2963556,6.90909091 L12.2963556,9.63636364 C12.2963556,9.87878788 12.3572287,10.1212121 12.4789748,10.2424242 C12.6007209,10.3636364 12.8442131,10.4242424 13.0877052,10.4242424 L16.7400881,10.4242424 C17.0444533,10.4242424 17.2270725,10.3636364 17.3488186,10.2424242 C17.4705647,10.1212121 17.5314377,9.87878788 17.5314377,9.63636364 L17.5314377,6.90909091 Z" id="Shape"></path>
                    <path d="M28.7929515,12.4242424 L26.784141,12.4242424 L26.784141,6.90909091 C26.784141,6.66666667 26.7232679,6.42424242 26.6015218,6.3030303 C26.4797757,6.18181818 26.2362835,6.12121212 25.9927913,6.12121212 L23.3752503,6.12121212 L23.3752503,12.4848485 L21.3055667,12.4848485 L21.3055667,5.09090909 C21.3055667,4.96969697 21.3055667,4.84848485 21.3664397,4.72727273 C21.4273128,4.60606061 21.4881858,4.48484848 21.6099319,4.42424242 C21.731678,4.36363636 21.7925511,4.24242424 21.9142972,4.24242424 C22.0360433,4.18181818 22.1577893,4.18181818 22.2795354,4.18181818 L25.9319183,4.18181818 C26.2362835,4.18181818 26.5406488,4.24242424 26.845014,4.3030303 C27.1493793,4.42424242 27.4537445,4.54545455 27.7581097,4.78787879 L27.7581097,4.18181818 L30.4973969,4.18181818 C30.680016,4.18181818 30.8626352,4.18181818 31.1061274,4.24242424 C31.2887465,4.3030303 31.5322387,4.36363636 31.7148578,4.42424242 C31.897477,4.54545455 32.1409692,4.66666667 32.3235883,4.78787879 C32.5062074,4.90909091 32.6888266,5.09090909 32.8105727,5.33333333 C32.9323188,5.57575758 33.0540649,5.75757576 33.175811,6.06060606 C33.236684,6.36363636 33.2975571,6.66666667 33.2975571,6.96969697 L33.2975571,12.4848485 L31.2887465,12.4848485 L31.2887465,6.96969697 C31.2887465,6.72727273 31.2278734,6.48484848 31.1061274,6.36363636 C30.9843813,6.24242424 30.7408891,6.18181818 30.4973969,6.18181818 L28.6712054,6.18181818 C28.7320785,6.42424242 28.7929515,6.66666667 28.7929515,6.96969697 L28.7929515,12.4242424 Z" id="Shape"></path>
                    <path d="M42.6720064,12.4242424 L40.6631958,12.4242424 L40.6631958,6.90909091 C40.6631958,6.66666667 40.6023228,6.42424242 40.4805767,6.3030303 C40.3588306,6.18181818 40.1153384,6.12121212 39.8718462,6.12121212 L37.2543052,6.12121212 L37.2543052,12.4848485 L35.2454946,12.4848485 L35.2454946,5.09090909 C35.2454946,4.96969697 35.2454946,4.84848485 35.3063676,4.72727273 C35.3672407,4.60606061 35.4281137,4.48484848 35.5498598,4.42424242 C35.6716059,4.36363636 35.732479,4.24242424 35.8542251,4.24242424 C35.9759712,4.24242424 36.0977173,4.18181818 36.2803364,4.18181818 L39.9327193,4.18181818 C40.2370845,4.18181818 40.5414497,4.24242424 40.845815,4.3030303 C41.1501802,4.42424242 41.4545455,4.54545455 41.7589107,4.78787879 L41.7589107,4.18181818 L44.4981978,4.18181818 C44.680817,4.18181818 44.8634361,4.18181818 45.1069283,4.24242424 C45.3504205,4.3030303 45.5330396,4.36363636 45.7156588,4.42424242 C45.8982779,4.54545455 46.1417701,4.66666667 46.3243893,4.78787879 C46.5070084,4.90909091 46.6896276,5.09090909 46.8113736,5.33333333 C46.9331197,5.51515152 47.0548658,5.75757576 47.1766119,6.06060606 C47.237485,6.36363636 47.298358,6.66666667 47.298358,6.96969697 L47.298358,12.4848485 L45.2895475,12.4848485 L45.2895475,6.96969697 C45.2895475,6.72727273 45.2286744,6.48484848 45.1069283,6.36363636 C44.9851822,6.24242424 44.74169,6.18181818 44.4981978,6.18181818 L42.6720064,6.18181818 C42.7328795,6.42424242 42.7937525,6.66666667 42.7937525,6.96969697 L42.7937525,12.4242424 L42.6720064,12.4242424 Z" id="Shape"></path>
                    <path d="M58.1946336,11.3939394 C58.1946336,11.5151515 58.1946336,11.6969697 58.1337605,11.8181818 C58.0728875,11.9393939 58.0120144,12.0606061 57.8902683,12.1212121 C57.8293953,12.1818182 57.7076492,12.3030303 57.5859031,12.3636364 C57.464157,12.4242424 57.3424109,12.4242424 57.2206648,12.4242424 L52.6551862,12.4242424 C52.411694,12.4242424 52.1682018,12.4242424 51.8638366,12.3636364 C51.5594714,12.3030303 51.3159792,12.2424242 51.0116139,12.0606061 C50.7072487,11.8787879 50.4637565,11.7575758 50.2202643,11.5757576 C49.9767721,11.3939394 49.7332799,11.1515152 49.5506608,10.8484848 C49.3680416,10.5454545 49.1854225,10.2424242 49.0636764,9.87878788 C48.9419303,9.51515152 48.8810573,9.09090909 48.8810573,8.66666667 L48.8810573,4.06060606 L50.8898678,4.06060606 L50.8898678,8.66666667 C50.8898678,8.90909091 50.9507409,9.15151515 51.0116139,9.39393939 C51.072487,9.57575758 51.2551061,9.75757576 51.3768522,9.93939394 C51.4985983,10.1212121 51.7420905,10.1818182 51.9247097,10.3030303 C52.1073288,10.3636364 52.350821,10.4242424 52.5943132,10.4242424 L56.1249499,10.4242424 L56.1249499,4.06060606 L58.1337605,4.06060606 L58.1337605,11.3939394 L58.1946336,11.3939394 Z" id="Shape"></path>
                    <path d="M69.3952743,12.4242424 L67.3864638,12.4242424 L67.3864638,7.81818182 C67.3864638,7.57575758 67.3255907,7.33333333 67.2647177,7.09090909 C67.2038446,6.90909091 67.0212255,6.72727273 66.8994794,6.54545455 C66.7777333,6.36363636 66.5342411,6.3030303 66.3516219,6.18181818 C66.1690028,6.12121212 65.9255106,6.06060606 65.6820184,6.06060606 L62.0905086,6.06060606 L62.0905086,12.4242424 L60.081698,12.4242424 L60.081698,5.09090909 C60.081698,4.96969697 60.081698,4.84848485 60.1425711,4.72727273 C60.2034441,4.60606061 60.2643172,4.48484848 60.3860633,4.42424242 C60.5078094,4.36363636 60.5686824,4.24242424 60.6904285,4.24242424 C60.8121746,4.24242424 60.9339207,4.18181818 61.1165398,4.18181818 L65.6820184,4.18181818 C65.9255106,4.18181818 66.2298759,4.18181818 66.473368,4.24242424 C66.7777333,4.3030303 67.0212255,4.36363636 67.3255907,4.54545455 C67.6299559,4.66666667 67.8734481,4.84848485 68.1169403,5.03030303 C68.3604325,5.21212121 68.6039247,5.45454545 68.7865439,5.75757576 C68.969163,6.06060606 69.1517821,6.36363636 69.2735282,6.72727273 C69.3952743,7.09090909 69.4561474,7.51515152 69.4561474,7.93939394 L69.4561474,12.4242424 L69.3952743,12.4242424 Z" id="Shape"></path>
                    <path d="M73.2302763,2.36363636 L71.2214658,2.36363636 L71.2214658,0.545454545 L73.2302763,0.545454545 L73.2302763,2.36363636 Z M73.2302763,12.4242424 L71.2214658,12.4242424 L71.2214658,4.06060606 L73.2302763,4.06060606 L73.2302763,12.4242424 Z" id="Shape"></path>
                    <path d="M83.2743292,12.4242424 L77.7957549,12.4242424 C77.4913897,12.4242424 77.1870244,12.3636364 76.8826592,12.3030303 C76.578294,12.2424242 76.2739287,12.0606061 75.9695635,11.8181818 C75.6651982,11.5757576 75.4825791,11.3333333 75.2390869,10.969697 C75.0564678,10.6060606 74.9347217,10.1818182 74.9347217,9.63636364 L74.9347217,6.90909091 C74.9347217,6.72727273 74.9347217,6.54545455 74.9955947,6.3030303 C75.0564678,6.12121212 75.1173408,5.87878788 75.1782139,5.6969697 C75.29996,5.51515152 75.421706,5.27272727 75.5434521,5.09090909 C75.6651982,4.90909091 75.8478174,4.72727273 76.0913096,4.60606061 C76.2739287,4.48484848 76.5174209,4.36363636 76.8217861,4.24242424 C77.1261514,4.12121212 77.4305166,4.12121212 77.7348819,4.12121212 L83.2134561,4.12121212 L83.2134561,6.06060606 L77.7348819,6.06060606 C77.4913897,6.06060606 77.2478975,6.12121212 77.1261514,6.24242424 C77.0044053,6.36363636 76.9435322,6.60606061 76.9435322,6.84848485 L76.9435322,9.57575758 C76.9435322,9.81818182 77.0044053,10.0606061 77.1261514,10.1818182 C77.2478975,10.3030303 77.4913897,10.3636364 77.7348819,10.3636364 L83.2134561,10.3636364 L83.2134561,12.4242424 L83.2743292,12.4242424 Z" id="Shape"></path>
                    <path d="M93.5618742,9.63636364 C93.5618742,9.93939394 93.5010012,10.2424242 93.4401282,10.5454545 C93.3183821,10.8484848 93.196636,11.1515152 92.9531438,11.4545455 C92.7096516,11.7575758 92.4661594,11.9393939 92.1009211,12.1212121 C91.7356828,12.3030303 91.3095715,12.4242424 90.8225871,12.4242424 L87.1702042,12.4242424 C86.865839,12.4242424 86.5614738,12.3636364 86.2571085,12.3030303 C85.9527433,12.2424242 85.6483781,12.0606061 85.3440128,11.8181818 C85.0396476,11.5757576 84.8570284,11.3333333 84.6744093,10.969697 C84.4917901,10.6060606 84.3700441,10.1818182 84.3700441,9.6969697 C84.3700441,9.39393939 84.4309171,9.09090909 84.4917901,8.78787879 C84.6135362,8.48484848 84.7352823,8.18181818 84.9787745,7.87878788 C85.2222667,7.57575758 85.4657589,7.39393939 85.8309972,7.21212121 C86.1962355,7.03030303 86.6223468,6.90909091 87.1093312,6.90909091 L90.7617141,6.90909091 L90.7617141,8.84848485 L87.1093312,8.84848485 C86.804966,8.84848485 86.6223468,8.90909091 86.5006007,9.09090909 C86.3788546,9.27272727 86.2571085,9.45454545 86.2571085,9.6969697 C86.2571085,9.93939394 86.3179816,10.1818182 86.5006007,10.3030303 C86.6832199,10.4242424 86.865839,10.5454545 87.1093312,10.5454545 L90.7617141,10.5454545 C91.0660793,10.5454545 91.2486984,10.4848485 91.3704445,10.3030303 C91.4921906,10.1212121 91.6139367,9.93939394 91.6139367,9.6969697 L91.6139367,6.90909091 C91.6139367,6.66666667 91.5530637,6.42424242 91.3704445,6.3030303 C91.1878254,6.18181818 91.0052062,6.06060606 90.7617141,6.06060606 L86.3179816,6.06060606 L86.3179816,4.18181818 L90.7617141,4.18181818 C91.0660793,4.18181818 91.3704445,4.24242424 91.6748098,4.3030303 C91.979175,4.36363636 92.2835402,4.54545455 92.5879055,4.78787879 C92.8922707,5.03030303 93.0748899,5.27272727 93.257509,5.63636364 C93.4401282,6 93.5618742,6.42424242 93.5618742,6.90909091 L93.5618742,9.63636364 Z" id="Shape"></path>
                    <polygon id="Shape" points="102.875451 6.06060606 99.3448138 6.06060606 99.3448138 12.4242424 97.2751302 12.4242424 97.2751302 6.06060606 94.6575891 6.06060606 94.6575891 4.06060606 97.2751302 4.06060606 97.2751302 1.33333333 99.3448138 1.33333333 99.3448138 4.06060606 102.875451 4.06060606"></polygon>
                    <path d="M106.223468,2.36363636 L104.214658,2.36363636 L104.214658,0.545454545 L106.223468,0.545454545 L106.223468,2.36363636 Z M106.223468,12.4242424 L104.214658,12.4242424 L104.214658,4.06060606 L106.223468,4.06060606 L106.223468,12.4242424 Z" id="Shape"></path>
                    <path d="M117.302363,9.63636364 C117.302363,10 117.24149,10.3030303 117.180617,10.5454545 C117.119744,10.8484848 116.997998,11.0909091 116.815378,11.2727273 C116.693632,11.4545455 116.511013,11.6363636 116.328394,11.8181818 C116.145775,12 115.963156,12.0606061 115.719664,12.1818182 C115.537044,12.3030303 115.293552,12.3636364 115.110933,12.3636364 C114.928314,12.3636364 114.684822,12.4242424 114.502203,12.4242424 L110.84982,12.4242424 C110.545455,12.4242424 110.241089,12.3636364 109.936724,12.3030303 C109.632359,12.2424242 109.327994,12.0606061 109.023628,11.8181818 C108.719263,11.5757576 108.536644,11.3333333 108.293152,10.969697 C108.110533,10.6060606 107.988787,10.1818182 107.988787,9.63636364 L107.988787,6.90909091 C107.988787,6.42424242 108.110533,5.93939394 108.293152,5.57575758 C108.475771,5.21212121 108.719263,4.90909091 109.023628,4.72727273 C109.327994,4.48484848 109.632359,4.36363636 109.936724,4.24242424 C110.241089,4.12121212 110.545455,4.12121212 110.84982,4.12121212 L114.502203,4.12121212 C114.989187,4.12121212 115.476171,4.24242424 115.84141,4.42424242 C116.206648,4.60606061 116.511013,4.84848485 116.693632,5.15151515 C116.876252,5.45454545 117.058871,5.75757576 117.180617,6.06060606 C117.302363,6.36363636 117.302363,6.66666667 117.302363,6.96969697 L117.302363,9.63636364 Z M115.232679,6.90909091 C115.232679,6.60606061 115.171806,6.42424242 115.05006,6.3030303 C114.928314,6.18181818 114.684822,6.12121212 114.44133,6.12121212 L110.788947,6.12121212 C110.545455,6.12121212 110.301962,6.18181818 110.180216,6.3030303 C110.05847,6.42424242 109.997597,6.66666667 109.997597,6.90909091 L109.997597,9.63636364 C109.997597,9.87878788 110.05847,10.1212121 110.180216,10.2424242 C110.301962,10.3636364 110.545455,10.4242424 110.788947,10.4242424 L114.44133,10.4242424 C114.745695,10.4242424 114.928314,10.3636364 115.05006,10.2424242 C115.171806,10.1212121 115.232679,9.87878788 115.232679,9.63636364 L115.232679,6.90909091 Z" id="Shape"></path>
                    <path d="M128.259511,12.4242424 L126.250701,12.4242424 L126.250701,7.81818182 C126.250701,7.57575758 126.189828,7.33333333 126.128955,7.09090909 C126.068082,6.90909091 125.885463,6.72727273 125.763716,6.54545455 C125.64197,6.36363636 125.398478,6.3030303 125.215859,6.18181818 C125.03324,6.12121212 124.789748,6.06060606 124.546256,6.06060606 L121.015619,6.06060606 L121.015619,12.4242424 L119.006808,12.4242424 L119.006808,5.09090909 C119.006808,4.96969697 119.006808,4.84848485 119.067681,4.72727273 C119.128554,4.60606061 119.189427,4.48484848 119.311173,4.42424242 C119.43292,4.36363636 119.493793,4.24242424 119.615539,4.24242424 C119.737285,4.24242424 119.859031,4.18181818 120.04165,4.18181818 L124.607129,4.18181818 C124.850621,4.18181818 125.154986,4.18181818 125.398478,4.24242424 C125.702843,4.3030303 125.946336,4.36363636 126.250701,4.54545455 C126.555066,4.66666667 126.798558,4.84848485 127.04205,5.03030303 C127.285543,5.21212121 127.529035,5.45454545 127.711654,5.75757576 C127.894273,6.06060606 128.076892,6.36363636 128.198638,6.72727273 C128.320384,7.09090909 128.381258,7.51515152 128.381258,7.93939394 L128.381258,12.4242424 L128.259511,12.4242424 Z" id="Shape"></path>
                    <path d="M138.181818,9.63636364 C138.181818,10 138.120945,10.3030303 138.060072,10.5454545 C137.999199,10.8484848 137.877453,11.0909091 137.694834,11.2727273 C137.512215,11.4545455 137.390469,11.6363636 137.207849,11.8181818 C137.02523,12 136.842611,12.0606061 136.599119,12.1818182 C136.4165,12.3030303 136.173008,12.3636364 135.990388,12.3636364 C135.807769,12.3636364 135.564277,12.4242424 135.381658,12.4242424 L129.903084,12.4242424 L129.903084,10.4242424 L135.320785,10.4242424 C135.62515,10.4242424 135.807769,10.3636364 135.929515,10.2424242 C136.051262,10.1212121 136.112135,9.87878788 136.112135,9.63636364 C136.112135,9.09090909 135.807769,8.84848485 135.320785,8.84848485 L132.21626,8.84848485 C131.790148,8.84848485 131.364037,8.78787879 131.059672,8.60606061 C130.755306,8.42424242 130.511814,8.24242424 130.329195,8 C130.146576,7.75757576 130.02483,7.51515152 129.903084,7.27272727 C129.842211,7.03030303 129.781338,6.72727273 129.781338,6.54545455 C129.781338,6.12121212 129.842211,5.6969697 130.02483,5.39393939 C130.207449,5.09090909 130.390068,4.84848485 130.63356,4.66666667 C130.877052,4.48484848 131.120545,4.36363636 131.42491,4.24242424 C131.729275,4.18181818 131.972767,4.12121212 132.21626,4.12121212 L137.146976,4.12121212 L137.146976,6.06060606 L132.21626,6.06060606 C132.094513,6.06060606 132.03364,6.06060606 131.972767,6.12121212 C131.911894,6.18181818 131.851021,6.18181818 131.851021,6.24242424 C131.851021,6.3030303 131.790148,6.3030303 131.790148,6.36363636 C131.790148,6.42424242 131.790148,6.42424242 131.790148,6.48484848 C131.790148,6.54545455 131.790148,6.60606061 131.851021,6.66666667 C131.851021,6.72727273 131.911894,6.72727273 131.972767,6.78787879 C132.03364,6.78787879 132.03364,6.84848485 132.094513,6.84848485 C132.155386,6.84848485 132.21626,6.84848485 132.21626,6.84848485 L135.320785,6.84848485 C135.807769,6.84848485 136.294754,6.96969697 136.659992,7.15151515 C137.02523,7.33333333 137.329596,7.57575758 137.512215,7.87878788 C137.755707,8.18181818 137.877453,8.48484848 137.999199,8.78787879 C138.120945,9.03030303 138.181818,9.33333333 138.181818,9.63636364 Z" id="Shape"></path>
                </g>
                <path d="M52.7272727,25.0755089 C52.7272727,25.0755089 52.7272727,25.3226288 52.7272727,25.6933087 C52.7272727,25.8168686 52.7272727,25.8786486 52.7272727,26.0639885 C52.7272727,26.1875485 52.6650433,26.3728884 52.6650433,26.4964484 C52.6650433,26.6817883 52.6028139,26.8671283 52.6028139,27.0524682 C52.5405844,27.2378082 52.5405844,27.4231481 52.478355,27.608488 C52.2916667,28.4116278 51.91829,29.3383275 51.3582251,30.3885871 C50.7359307,31.3770668 49.9269481,32.4273264 48.7445887,33.3540261 C47.5622294,34.2189459 46.0687229,35.0220856 44.3885281,35.3309855 C44.2018398,35.3927655 43.9529221,35.3927655 43.7040043,35.4545455 L43.2683983,35.3927655 L43.08171,35.3927655 C43.0194805,35.3927655 43.1439394,35.3927655 42.9572511,35.3927655 L42.8950216,35.3927655 L42.8327922,35.3927655 C42.4594156,35.3927655 42.086039,35.4545455 41.525974,35.3927655 C41.2770563,35.3927655 41.0281385,35.3927655 40.7792208,35.3309855 C40.530303,35.2692055 40.2813853,35.2692055 40.094697,35.2074255 C39.8457792,35.1456456 39.5968615,35.0838656 39.4101732,35.0220856 C39.1612554,34.9603056 38.9123377,34.8985256 38.7256494,34.7749657 C37.7922078,34.4660658 36.8587662,33.9718259 36.0497835,33.3540261 C35.2408009,32.7362263 34.4318182,31.9948666 33.8095238,31.1299469 C33.1872294,30.2650272 32.6893939,29.2765475 32.3160173,28.2262878 C31.9426407,27.1760282 31.8181818,26.0639885 31.8181818,24.9519489 L31.8804113,24.1488092 L31.8804113,23.9634692 C31.8804113,23.9016892 31.8804113,23.8399093 31.8804113,23.7781293 L31.9426407,23.3456694 C32.0048701,23.0367695 32.0048701,22.7278696 32.129329,22.4807497 L32.3782468,21.67761 C32.7516234,20.6273503 33.2494589,19.6388707 33.8717532,18.7739509 C34.4940476,17.9090312 35.2408009,17.1676715 36.112013,16.5498717 C36.9832251,15.9320719 37.8544372,15.437832 38.7878788,15.1289321 C39.7213203,14.8200322 40.7169913,14.5729123 41.6504329,14.5729123 C42.1482684,14.5111323 42.5838745,14.5729123 43.0194805,14.5729123 L43.2683983,14.5729123 L43.3928571,14.5729123 L43.7040043,14.6346923 C43.8906926,14.6964723 44.077381,14.6964723 44.2640693,14.7582523 C44.6996753,14.8818122 45.1975108,14.9435922 45.5708874,15.1289321 C45.7575758,15.1907121 45.9442641,15.2524921 46.1931818,15.3142721 C46.3798701,15.3760521 46.5665584,15.499612 46.7532468,15.561392 C47.5,15.8702919 48.1222944,16.3027517 48.7445887,16.7352116 C49.9269481,17.6619113 50.7359307,18.712171 51.3582251,19.7006506 C51.9805195,20.6891303 52.2916667,21.67761 52.478355,22.4807497 C52.5405844,22.6660897 52.5405844,22.8514296 52.6028139,23.0367695 C52.6650433,23.2221095 52.6650433,23.4074494 52.6650433,23.5310094 C52.7272727,23.8399093 52.7272727,24.0870292 52.7272727,24.3341491 C52.7272727,24.766609 52.7272727,25.0137289 52.7272727,25.0755089 Z M51.3582251,25.0137289 C51.3582251,25.0137289 51.3582251,24.8283889 51.2959957,24.4577091 C51.2959957,24.2723691 51.2337662,24.0252492 51.2337662,23.7781293 C51.2337662,23.6545693 51.1715368,23.4692294 51.1715368,23.3456694 C51.1093074,23.2221095 51.1093074,23.0367695 51.0470779,22.8514296 C50.8603896,22.1718498 50.487013,21.3687101 49.9269481,20.6273503 C49.3668831,19.8242106 48.5579004,19.0828508 47.5,18.526831 C47.0021645,18.2797111 46.4420996,18.0325912 45.8198052,17.8472512 C45.6953463,17.7854713 45.508658,17.7854713 45.3841991,17.7236913 C45.2597403,17.7236913 45.0730519,17.6619113 44.8863636,17.6619113 C44.5752165,17.6001313 44.2640693,17.6001313 44.0151515,17.6001313 C43.8906926,17.6001313 43.6417749,17.6001313 43.4550866,17.6001313 L43.1439394,17.6001313 L43.0194805,17.6001313 C42.9572511,17.6001313 43.08171,17.6001313 43.08171,17.6001313 L43.0194805,17.6001313 C42.7083333,17.6619113 42.3971861,17.6619113 42.086039,17.7854713 C41.4637446,17.9090312 40.8414502,18.2179311 40.2813853,18.526831 C39.7213203,18.8357309 39.2234848,19.2681908 38.7256494,19.7006506 C38.2900433,20.1331105 37.8544372,20.6891303 37.54329,21.2451501 C37.4188312,21.55405 37.2321429,21.8011699 37.107684,22.1100698 C37.0454545,22.2336298 36.9832251,22.4189697 36.9209957,22.5425297 C36.8587662,22.6660897 36.7965368,22.8514296 36.7965368,22.9749896 C36.7343074,23.2838895 36.6720779,23.5927894 36.6098485,23.8399093 L36.547619,24.0252492 C36.547619,24.0252492 36.547619,24.0870292 36.547619,24.1488092 L36.547619,24.3341491 L36.547619,24.643049 L36.547619,24.8283889 L36.547619,24.8901689 L36.547619,24.9519489 C36.547619,24.8901689 36.547619,25.0755089 36.547619,24.8283889 C36.547619,25.4461887 36.6720779,26.1257685 36.7965368,26.7435683 C36.8587662,26.9289083 36.9209957,27.0524682 36.9209957,27.1760282 C36.9832251,27.3613681 37.0454545,27.4849281 37.107684,27.608488 C37.2321429,27.9173879 37.3566017,28.1645078 37.54329,28.4734077 C37.8544372,29.0294276 38.2900433,29.5854474 38.7256494,30.0179072 C39.2234848,30.4503671 39.7213203,30.882827 40.2813853,31.1917269 C40.4058442,31.3152868 40.5925325,31.3152868 40.7169913,31.4388468 C40.8414502,31.5006268 41.0281385,31.6241867 41.1525974,31.6241867 C41.2770563,31.6859667 41.4637446,31.7477467 41.5882035,31.8095267 C41.7126623,31.8713066 41.8993506,31.8713066 42.0238095,31.9330866 C42.2727273,32.0566466 42.7083333,32.0566466 43.08171,32.1184266 L43.1439394,32.1184266 L43.2061688,32.1184266 C43.08171,32.1184266 43.1439394,32.1184266 43.1439394,32.1184266 L43.2683983,32.1184266 L43.517316,32.1184266 C43.7040043,32.1184266 43.8284632,32.1802065 44.0151515,32.1184266 C45.3219697,32.1184266 46.504329,31.8095267 47.5622294,31.2535068 C48.6201299,30.697487 49.4291126,29.8943473 49.9891775,29.1529875 C50.6114719,28.3498478 50.922619,27.5467081 51.1093074,26.9289083 C51.1715368,26.7435683 51.2337662,26.6200084 51.2337662,26.4346684 C51.2959957,26.3111085 51.2959957,26.1257685 51.2959957,26.0022086 C51.2959957,25.8786486 51.3582251,25.7550886 51.3582251,25.6315287 C51.3582251,25.5079687 51.3582251,25.3844088 51.3582251,25.3226288 C51.3582251,25.1990688 51.3582251,25.0137289 51.3582251,25.0137289 Z" id="Shape" fill="url(#linearGradient-1)"></path>
                <path d="M0,25.0309408 C0,25.0309408 0,24.7834145 0,24.4121252 C0,24.2883621 0,24.2264805 0,24.0408358 C0,23.9170727 0.0598802395,23.7314281 0.0598802395,23.6076649 C0.0598802395,23.4220203 0.119760479,23.2363756 0.119760479,23.0507309 C0.179640719,22.8650862 0.179640719,22.6794416 0.239520958,22.4937969 C0.419161677,21.6893366 0.778443114,20.7611133 1.31736527,19.7091268 C1.91616766,18.7190219 2.69461078,17.6670354 3.83233533,16.738812 C4.97005988,15.8724702 6.40718563,15.0680099 8.0239521,14.7586021 C8.20359281,14.6967206 8.44311377,14.6967206 8.68263473,14.634839 L8.98203593,14.5729575 L9.16167665,14.5729575 C9.10179641,14.5729575 9.28143713,14.5729575 9.28143713,14.5729575 L9.34131737,14.5729575 L9.4011976,14.5729575 C9.76047904,14.5729575 10.1197605,14.5110759 10.6586826,14.5729575 C10.8982036,14.5729575 11.1377246,14.5729575 11.3772455,14.634839 C11.6167665,14.6967206 11.8562874,14.6967206 12.0359281,14.7586021 C12.2754491,14.8204837 12.5149701,14.8823653 12.6946108,14.9442468 C12.9341317,15.0061284 13.1736527,15.0680099 13.3532934,15.191773 C14.251497,15.5011808 15.1497006,15.9962333 15.9281437,16.6150489 C16.7065868,17.2338645 17.4850299,17.9764432 18.0838323,18.842785 C18.6826347,19.7091268 19.1616766,20.6992317 19.5209581,21.7512182 C19.8802395,22.8032047 20,23.9170727 20,25.0309408 L19.9401198,25.835401 L19.9401198,26.0210457 C19.9401198,26.0829273 19.9401198,26.1448088 19.9401198,26.2066904 L19.8802395,26.6398613 C19.8203593,26.9492691 19.8203593,27.2586769 19.7005988,27.5062031 L19.4610778,28.3106634 C19.1017964,29.3626498 18.6227545,30.3527548 18.0239521,31.2190966 C17.4251497,32.0854384 16.7065868,32.8280171 15.8682635,33.4468327 C15.0299401,34.0656483 14.1916168,34.5607007 13.2934132,34.8701085 C12.3952096,35.1795163 11.4371257,35.4270425 10.5389222,35.4270425 C10.0598802,35.4889241 9.64071856,35.4270425 9.22155689,35.4270425 L8.98203593,35.4270425 L8.86227545,35.4270425 L8.80239521,35.4270425 C8.62275449,35.365161 8.44311377,35.365161 8.26347305,35.3032794 C7.84431138,35.1795163 7.36526946,35.1176347 7.00598802,34.9319901 C6.82634731,34.8701085 6.64670659,34.808227 6.40718563,34.7463454 C6.22754491,34.6844638 6.04790419,34.5607007 5.86826347,34.4988192 C5.1497006,34.1894114 4.5508982,33.7562405 3.95209581,33.3230696 C2.81437126,32.3948462 2.03592814,31.3428597 1.43712575,30.3527548 C0.838323353,29.3626498 0.538922156,28.3725449 0.359281437,27.5680847 C0.299401198,27.38244 0.299401198,27.1967953 0.239520958,27.0111506 C0.179640719,26.825506 0.179640719,26.6398613 0.179640719,26.5160982 C0.119760479,26.2066904 0.119760479,25.9591642 0.119760479,25.7116379 C0,25.3403486 0,25.0928223 0,25.0309408 Z M1.31736527,25.0928223 C1.31736527,25.0928223 1.31736527,25.278467 1.37724551,25.6497564 C1.37724551,25.835401 1.43712575,26.0829273 1.43712575,26.3304535 C1.43712575,26.4542166 1.49700599,26.6398613 1.49700599,26.7636244 C1.55688623,26.8873875 1.55688623,27.0730322 1.61676647,27.2586769 C1.79640719,27.939374 2.15568862,28.7438343 2.69461078,29.486413 C3.23353293,30.2908732 4.07185629,31.0953335 5.02994012,31.6522675 C5.50898204,31.8997937 6.04790419,32.14732 6.64670659,32.3329646 C6.76646707,32.3948462 6.94610778,32.3948462 7.06586826,32.4567278 C7.18562874,32.4567278 7.36526946,32.5186093 7.54491018,32.5186093 C7.84431138,32.5804909 8.14371257,32.5804909 8.38323353,32.5804909 C8.50299401,32.5804909 8.74251497,32.5804909 8.92215569,32.5804909 L9.22155689,32.5804909 L9.34131737,32.5804909 C9.4011976,32.5804909 9.28143713,32.5804909 9.28143713,32.5804909 L9.34131737,32.5804909 C9.64071856,32.5186093 9.94011976,32.5186093 10.239521,32.3948462 C10.8383234,32.2710831 11.4371257,31.9616753 11.9760479,31.6522675 C12.5149701,31.3428597 12.994012,30.9096888 13.4730539,30.4765179 C13.8922156,30.043347 14.3113772,29.486413 14.6107784,28.9294789 C14.7305389,28.6200711 14.9101796,28.3725449 15.0299401,28.0631371 C15.0898204,27.939374 15.1497006,27.7537293 15.2095808,27.6299662 C15.2694611,27.5062031 15.3293413,27.3205584 15.3293413,27.1967953 C15.3892216,26.8873875 15.4491018,26.5779797 15.508982,26.3304535 L15.5688623,26.1448088 C15.5688623,26.1448088 15.5688623,26.0829273 15.5688623,26.0210457 L15.5688623,25.835401 L15.5688623,25.5259932 L15.5688623,25.3403486 L15.5688623,25.278467 L15.5688623,25.2165855 C15.5688623,25.278467 15.5688623,25.0928223 15.5688623,25.3403486 C15.5688623,24.721533 15.4491018,24.0408358 15.3293413,23.4220203 C15.2694611,23.2363756 15.2095808,23.1126125 15.2095808,22.9888494 C15.1497006,22.8032047 15.0898204,22.6794416 15.0299401,22.5556785 C14.9101796,22.2462707 14.7904192,21.9987444 14.6107784,21.6893366 C14.3113772,21.1324026 13.8922156,20.5754686 13.4730539,20.1422977 C12.994012,19.7091268 12.5149701,19.2759559 11.9760479,18.9665481 C11.8562874,18.842785 11.6766467,18.842785 11.5568862,18.7190219 C11.4371257,18.6571403 11.257485,18.5333772 11.1377246,18.5333772 C11.0179641,18.4714956 10.8383234,18.4096141 10.7185629,18.3477325 C10.5988024,18.2858509 10.4191617,18.2858509 10.2994012,18.2239694 C10.0598802,18.1002063 9.64071856,18.1002063 9.28143713,18.0383247 L9.22155689,18.0383247 L9.16167665,18.0383247 C9.16167665,18.0383247 9.28143713,18.0383247 9.22155689,18.0383247 L9.10179641,18.0383247 L8.86227545,18.0383247 C8.68263473,18.0383247 8.56287425,17.9764432 8.38323353,18.0383247 C7.1257485,18.0383247 5.92814371,18.3477325 4.97005988,18.9046665 C3.95209581,19.4616006 3.17365269,20.2660608 2.63473054,21.0086395 C2.03592814,21.8130998 1.73652695,22.61756 1.55688623,23.2363756 C1.49700599,23.4220203 1.43712575,23.5457834 1.43712575,23.7314281 C1.37724551,23.8551912 1.37724551,24.0408358 1.37724551,24.164599 C1.37724551,24.2883621 1.31736527,24.4121252 1.31736527,24.5358883 C1.31736527,24.6596514 1.31736527,24.7834145 1.31736527,24.8452961 C1.31736527,24.9071777 1.31736527,25.0928223 1.31736527,25.0928223 Z" id="Shape" fill="url(#linearGradient-2)"></path>
                <path d="M26.8491226,49.8755411 C26.8491226,49.8755411 26.6015964,49.8755411 26.230307,49.8755411 C26.1065439,49.8755411 26.0446623,49.8755411 25.8590177,49.8755411 C25.7352546,49.8755411 25.5496099,49.8133117 25.4258468,49.8133117 C25.2402021,49.8133117 25.0545574,49.7510823 24.8689127,49.7510823 C24.6832681,49.6888528 24.4976234,49.6888528 24.3119787,49.6266234 C23.5075185,49.4399351 22.5792951,49.0665584 21.5273086,48.5064935 C20.5372037,47.8841991 19.4852172,47.0752165 18.5569938,45.8928571 C17.690652,44.7104978 16.8861917,43.2169913 16.576784,41.5367965 C16.5149024,41.3501082 16.5149024,41.1011905 16.4530208,40.8522727 L16.3911393,40.5411255 L16.3911393,40.3544372 C16.3911393,40.4166667 16.3911393,40.2299784 16.3911393,40.2299784 L16.3911393,40.1677489 L16.3911393,40.1055195 C16.3911393,39.7321429 16.3292577,39.3587662 16.3911393,38.7987013 C16.3911393,38.5497835 16.3911393,38.3008658 16.4530208,38.0519481 C16.5149024,37.8030303 16.5149024,37.5541126 16.576784,37.3674242 C16.6386655,37.1185065 16.7005471,36.8695887 16.7624286,36.6829004 C16.8243102,36.4339827 16.8861917,36.1850649 17.0099549,35.9983766 C17.3193626,35.0649351 17.8144151,34.1314935 18.4332307,33.3225108 C19.0520463,32.5135281 19.794625,31.7045455 20.6609668,31.0822511 C21.5273086,30.4599567 22.5174135,29.9621212 23.5694,29.5887446 C24.6213865,29.215368 25.7352546,29.0909091 26.8491226,29.0909091 L27.6535829,29.1531385 L27.8392275,29.1531385 C27.9011091,29.1531385 27.9629906,29.1531385 28.0248722,29.1531385 L28.4580431,29.215368 C28.7674509,29.2775974 29.0768587,29.2775974 29.3243849,29.4020563 L30.1288452,29.650974 C31.1808317,30.0243506 32.1709366,30.5221861 33.0372784,31.1444805 C33.9036202,31.7667749 34.6461989,32.5135281 35.2650145,33.3847403 C35.8838301,34.2559524 36.3788825,35.1271645 36.6882903,36.0606061 C36.9976981,36.9940476 37.2452244,37.9897186 37.2452244,38.9231602 C37.3071059,39.4209957 37.2452244,39.8566017 37.2452244,40.2922078 L37.2452244,40.5411255 L37.2452244,40.6655844 L37.1833428,40.9767316 C37.1214612,41.1634199 37.1214612,41.3501082 37.0595797,41.5367965 C36.9358166,41.9724026 36.873935,42.4702381 36.6882903,42.8436147 C36.6264088,43.030303 36.5645272,43.2169913 36.5026457,43.4659091 C36.4407641,43.6525974 36.317001,43.8392857 36.2551194,44.025974 C35.9457116,44.7727273 35.5125407,45.3950216 35.0793698,46.017316 C34.1511465,47.1996753 33.09916,48.008658 32.109055,48.6309524 C31.1189501,49.2532468 30.1288452,49.5643939 29.3243849,49.7510823 C29.1387402,49.8133117 28.9530956,49.8133117 28.7674509,49.8755411 C28.5818062,49.9377706 28.3961615,49.9377706 28.2723984,49.9377706 C27.9629906,50 27.7154644,50 27.4679382,50 C27.0966488,49.8755411 26.8491226,49.8755411 26.8491226,49.8755411 Z M26.8491226,48.5064935 C26.8491226,48.5064935 27.0347673,48.5064935 27.4060566,48.4442641 C27.5917013,48.4442641 27.8392275,48.3820346 28.0867538,48.3820346 C28.2105169,48.3820346 28.3961615,48.3198052 28.5199247,48.3198052 C28.6436878,48.2575758 28.8293325,48.2575758 29.0149771,48.1953463 C29.6956743,48.008658 30.5001345,47.6352814 31.2427132,47.0752165 C32.0471735,46.5151515 32.7897522,45.7061688 33.3466862,44.6482684 C33.5942124,44.1504329 33.8417387,43.590368 34.0273833,42.9680736 C34.0892649,42.8436147 34.0892649,42.6569264 34.1511465,42.5324675 C34.1511465,42.4080087 34.213028,42.2213203 34.213028,42.034632 C34.2749096,41.7234848 34.2749096,41.4123377 34.2749096,41.1634199 C34.2749096,41.038961 34.2749096,40.7900433 34.2749096,40.603355 L34.2749096,40.2922078 L34.2749096,40.1677489 C34.2749096,40.1055195 34.2749096,40.2299784 34.2749096,40.2299784 L34.2749096,40.1677489 C34.213028,39.8566017 34.213028,39.5454545 34.0892649,39.2343074 C33.9655018,38.612013 33.656094,37.9897186 33.3466862,37.4296537 C33.0372784,36.8695887 32.6041075,36.3717532 32.1709366,35.8739177 C31.7377657,35.4383117 31.1808317,35.0027056 30.6238976,34.6915584 C30.3144899,34.5670996 30.0669636,34.3804113 29.7575558,34.2559524 C29.6337927,34.1937229 29.448148,34.1314935 29.3243849,34.0692641 C29.2006218,34.0070346 29.0149771,33.9448052 28.891214,33.9448052 C28.5818062,33.8825758 28.2723984,33.8203463 28.0248722,33.7581169 L27.7154644,33.6958874 C27.7154644,33.6958874 27.6535829,33.6958874 27.5917013,33.6958874 L27.4060566,33.6958874 L27.0966488,33.6958874 L26.9110042,33.6958874 L26.8491226,33.6958874 L26.787241,33.6958874 C26.8491226,33.6958874 26.6634779,33.6958874 26.9110042,33.6958874 C26.2921886,33.6958874 25.6114914,33.8203463 24.9926759,33.9448052 C24.8070312,34.0070346 24.6832681,34.0692641 24.5595049,34.0692641 C24.3738603,34.1314935 24.2500972,34.1937229 24.126334,34.2559524 C23.8169263,34.3804113 23.5694,34.5048701 23.2599922,34.6915584 C22.7030582,35.0027056 22.1461242,35.4383117 21.7129533,35.8739177 C21.2797824,36.3717532 20.8466115,36.8695887 20.5372037,37.4296537 C20.4134406,37.5541126 20.4134406,37.7408009 20.2896774,37.8652597 C20.2277959,37.9897186 20.1040328,38.1764069 20.1040328,38.3008658 C20.0421512,38.4253247 19.9802696,38.612013 19.9183881,38.7364719 C19.8565065,38.8609307 19.8565065,39.047619 19.794625,39.1720779 C19.6708619,39.4209957 19.6708619,39.8566017 19.6089803,40.2299784 L19.6089803,40.2922078 L19.6089803,40.3544372 C19.6089803,40.3544372 19.6089803,40.2299784 19.6089803,40.2922078 L19.6089803,40.4166667 L19.6089803,40.6655844 C19.6089803,40.8522727 19.5470987,40.9767316 19.6089803,41.1634199 C19.6089803,42.4702381 19.9183881,43.6525974 20.4753221,44.7104978 C21.0322561,45.7683983 21.8367164,46.577381 22.5792951,47.1374459 C23.3837553,47.7597403 24.1882156,48.0708874 24.8070312,48.2575758 C24.9926759,48.3198052 25.116439,48.3820346 25.3020836,48.3820346 C25.4258468,48.4442641 25.6114914,48.4442641 25.7352546,48.4442641 C25.8590177,48.4442641 25.9827808,48.5064935 26.1065439,48.5064935 C26.230307,48.5064935 26.3540701,48.5064935 26.4159517,48.5064935 C26.6634779,48.5064935 26.9110042,48.5064935 26.8491226,48.5064935 Z" id="Shape" fill="url(#linearGradient-3)"></path>
                <path d="M25.8781501,0 C25.8781501,0 26.1256764,0 26.4969657,0 C26.6207288,0 26.6826104,0 26.8682551,0 C26.9920182,0 27.1776629,0.0598802395 27.301426,0.0598802395 C27.4870706,0.0598802395 27.6727153,0.119760479 27.85836,0.119760479 C28.0440047,0.179640719 28.2296493,0.179640719 28.415294,0.239520958 C29.2197543,0.419161677 30.1479776,0.778443114 31.1999641,1.31736527 C32.1900691,1.91616766 33.2420555,2.69461078 34.1702789,3.83233533 C35.0366207,4.97005988 35.841081,6.40718563 36.1504888,8.0239521 C36.2123703,8.20359281 36.2123703,8.44311377 36.2742519,8.68263473 L36.3361334,8.98203593 L36.3361334,9.16167665 C36.3361334,9.22155689 36.3361334,9.10179641 36.3361334,9.28143713 L36.3361334,9.34131737 L36.3361334,9.4011976 C36.3361334,9.76047904 36.398015,10.1197605 36.3361334,10.6586826 C36.3361334,10.8982036 36.3361334,11.1377246 36.2742519,11.3772455 C36.2123703,11.6167665 36.2123703,11.8562874 36.1504888,12.0359281 C36.0886072,12.2754491 36.0267257,12.5149701 35.9648441,12.6946108 C35.9029625,12.9341317 35.841081,13.1736527 35.7173179,13.3532934 C35.4079101,14.251497 34.9128576,15.1497006 34.294042,15.9281437 C33.6752265,16.7065868 32.9326478,17.4850299 32.0663059,18.0838323 C31.1999641,18.6826347 30.2098592,19.1616766 29.1578727,19.5209581 C28.1058862,19.8802395 26.9920182,20 25.8781501,20 L25.0736899,19.9401198 L24.8880452,19.9401198 C24.8261636,19.9401198 24.7642821,19.9401198 24.7024005,19.9401198 L24.2692296,19.8802395 C23.9598218,19.8203593 23.650414,19.8203593 23.4028878,19.7005988 L22.5984276,19.7005988 C21.5464411,19.3413174 20.5563361,18.8622754 19.6899943,18.2634731 C18.8236525,17.6646707 18.0810738,16.9461078 17.4622582,16.1077844 C16.8434426,15.2694611 16.3483902,14.4311377 16.0389824,13.5329341 C15.7295746,12.6347305 15.4820484,11.6766467 15.4820484,10.7784431 C15.4201668,10.2994012 15.4820484,9.88023952 15.4820484,9.46107784 L15.4820484,9.22155689 L15.4820484,9.10179641 L15.5439299,8.80239521 C15.6058115,8.62275449 15.6058115,8.44311377 15.667693,8.26347305 C15.7914562,7.84431138 15.8533377,7.36526946 16.0389824,7.00598802 C16.100864,6.82634731 16.1627455,6.64670659 16.2246271,6.40718563 C16.2865086,6.22754491 16.4102717,6.04790419 16.4721533,5.86826347 C16.7815611,5.1497006 17.214732,4.5508982 17.6479029,3.95209581 C18.5761263,2.81437126 19.6281128,2.03592814 20.6182177,1.43712575 C21.6083226,0.838323353 22.5984276,0.538922156 23.4028878,0.359281437 C23.5885325,0.299401198 23.7741772,0.299401198 23.9598218,0.239520958 C24.1454665,0.179640719 24.3311112,0.179640719 24.4548743,0.179640719 C24.7642821,0.119760479 25.0118083,0.119760479 25.2593345,0.119760479 C25.6306239,0 25.8162686,0 25.8781501,0 Z M25.8162686,1.31736527 C25.8162686,1.31736527 25.6306239,1.31736527 25.2593345,1.37724551 C25.0736899,1.37724551 24.8261636,1.43712575 24.5786374,1.43712575 C24.4548743,1.43712575 24.2692296,1.49700599 24.1454665,1.49700599 C24.0217034,1.55688623 23.8360587,1.55688623 23.650414,1.61676647 C22.9697169,1.79640719 22.1652566,2.15568862 21.4226779,2.69461078 C20.6182177,3.23353293 19.875639,4.01197605 19.318705,5.02994012 C19.0711787,5.50898204 18.8236525,6.04790419 18.6380078,6.64670659 C18.5761263,6.76646707 18.5761263,6.94610778 18.5142447,7.06586826 C18.5142447,7.18562874 18.4523632,7.36526946 18.4523632,7.54491018 C18.3904816,7.84431138 18.3904816,8.14371257 18.3904816,8.38323353 C18.3904816,8.50299401 18.3904816,8.74251497 18.3904816,8.92215569 L18.3904816,9.22155689 L18.3904816,9.34131737 C18.3904816,9.4011976 18.3904816,9.28143713 18.3904816,9.28143713 L18.3904816,9.34131737 C18.4523632,9.64071856 18.4523632,9.94011976 18.5761263,10.239521 C18.6998894,10.8383234 19.0092972,11.4371257 19.318705,11.9760479 C19.6281128,12.5149701 20.0612837,12.994012 20.4944546,13.4730539 C20.9276255,13.8922156 21.4845595,14.3113772 22.0414935,14.6107784 C22.3509013,14.7305389 22.5984276,14.9101796 22.9078353,15.0299401 C23.0315985,15.0898204 23.2172431,15.1497006 23.3410062,15.2095808 C23.4647694,15.2694611 23.650414,15.3293413 23.7741772,15.3293413 C24.0835849,15.3892216 24.3929927,15.4491018 24.640519,15.508982 L24.8261636,15.5688623 C24.8261636,15.5688623 24.8880452,15.5688623 24.9499268,15.5688623 L25.1355714,15.5688623 L25.4449792,15.5688623 L25.6306239,15.5688623 L25.6925055,15.5688623 L25.754387,15.5688623 C25.6925055,15.5688623 25.8781501,15.5688623 25.6306239,15.5688623 C26.2494395,15.5688623 26.9301366,15.4491018 27.5489522,15.3293413 C27.7345969,15.2694611 27.85836,15.2095808 27.9821231,15.2095808 C28.1677678,15.1497006 28.2915309,15.0898204 28.415294,15.0299401 C28.7247018,14.9101796 28.972228,14.7904192 29.2816358,14.6107784 C29.8385698,14.3113772 30.3955039,13.8922156 30.8286748,13.4730539 C31.2618457,12.994012 31.6950166,12.5149701 32.0044244,11.9760479 C32.1281875,11.8562874 32.1281875,11.6766467 32.2519506,11.5568862 C32.3138322,11.4371257 32.4375953,11.257485 32.4375953,11.1377246 C32.4994768,11.0179641 32.5613584,10.8383234 32.62324,10.7185629 C32.6851215,10.5988024 32.6851215,10.4191617 32.7470031,10.2994012 C32.8707662,10.0598802 32.8707662,9.64071856 32.9326478,9.28143713 L32.9326478,9.22155689 L32.9326478,9.16167665 C32.9326478,9.28143713 32.9326478,9.22155689 32.9326478,9.22155689 L32.9326478,9.10179641 L32.9326478,8.86227545 C32.9326478,8.68263473 32.9945293,8.56287425 32.9326478,8.38323353 C32.9326478,7.1257485 32.62324,5.98802395 32.0663059,4.97005988 C31.5093719,3.95209581 30.7049117,3.17365269 29.962333,2.63473054 C29.1578727,2.03592814 28.3534125,1.73652695 27.7345969,1.55688623 C27.5489522,1.49700599 27.4251891,1.43712575 27.2395444,1.43712575 C27.1157813,1.37724551 26.9301366,1.37724551 26.8063735,1.37724551 C26.6826104,1.37724551 26.5588473,1.31736527 26.4350842,1.31736527 C26.311321,1.31736527 26.1875579,1.31736527 26.1256764,1.31736527 C26.0019132,1.31736527 25.8162686,1.31736527 25.8162686,1.31736527 Z" id="Shape" fill="url(#linearGradient-4)"></path>
            </g>
        </g>
    </g>
</svg>